<svg width="47" height="64" viewBox="0 0 47 64" fill="none" xmlns="http://www.w3.org/2000/svg">
<path d="M23.366 64C13.0561 54.437 4.06003 44.1727 0.745222 30.1481C-2.49129 16.5793 5.09538 3.85192 18.0501 0.670084C33.7541 -3.21298 48.8144 10.3558 46.822 26.5017C45.7954 34.8288 42.1587 41.9813 37.4431 48.6869C33.8649 53.7275 29.7449 58.3545 25.1582 62.4836C24.6188 62.9394 24.0881 63.3777 23.366 64ZM23.5139 34.1977C24.8894 34.1979 26.2511 33.9219 27.5194 33.3855C28.7877 32.8492 29.9371 32.0634 30.9004 31.0742C31.8636 30.085 32.6214 28.9122 33.1293 27.6243C33.6373 26.3365 33.8851 24.9596 33.8585 23.574C33.8219 20.8087 32.7059 18.1692 30.7519 16.2269C28.7979 14.2845 26.1632 13.1956 23.4182 13.1958C22.0419 13.2072 20.6816 13.4927 19.4152 14.0357C18.1489 14.5788 17.0016 15.3687 16.0394 16.3601C15.0772 17.3515 14.319 18.5248 13.8085 19.8125C13.298 21.1002 13.0453 22.4769 13.0649 23.8633C13.1038 26.6214 14.2247 29.2518 16.1826 31.18C18.1404 33.1082 20.7761 34.1773 23.5139 34.1539V34.1977Z" fill="url(#paint0_linear_337_10070)"/>
<defs>
<linearGradient id="paint0_linear_337_10070" x1="40.0214" y1="0.438269" x2="23.268" y2="63.9388" gradientUnits="userSpaceOnUse">
<stop stop-color="#FC502B"/>
<stop offset="1" stop-color="#FF9431"/>
</linearGradient>
</defs>
</svg>
