<svg width="61" height="61" viewBox="0 0 61 61" fill="none" xmlns="http://www.w3.org/2000/svg">
<path d="M46.6826 60.4286C44.1126 59.5886 41.2227 58.8786 38.5227 57.7086C28.4227 53.3386 20.2326 46.4186 13.1326 38.1386C8.19259 32.3686 3.93262 26.1386 1.66262 18.7986C-0.287377 12.5386 -0.337211 13.5886 3.33279 8.72862C5.43132 6.05301 7.70621 3.52068 10.1426 1.14861C11.7626 -0.491395 12.8526 -0.381399 14.1426 1.5186C16.8526 5.6686 19.4827 9.88862 21.9927 14.1686C23.1027 16.0586 22.8326 16.6386 21.1726 18.0986C20.0526 19.0986 18.9428 20.0486 17.8028 21.0086C17.5344 21.1917 17.3398 21.4641 17.2537 21.7773C17.1676 22.0905 17.1957 22.4241 17.3328 22.7186C18.9876 27.5022 21.7082 31.847 25.2891 35.4245C28.87 39.002 33.2175 41.7185 38.0027 43.3686C38.2965 43.5099 38.6313 43.5402 38.9456 43.4538C39.2599 43.3674 39.5324 43.1702 39.7127 42.8986C40.7127 41.6986 41.7128 40.5086 42.7928 39.3386C44.0828 37.8986 44.6828 37.6286 46.3028 38.5986C50.7628 41.2386 55.1627 43.9886 59.5127 46.8086C60.8927 47.7086 60.9927 48.8086 59.9727 50.0186C56.5896 53.9144 52.6101 57.2491 48.1826 59.8986C47.6965 60.1122 47.1951 60.2894 46.6826 60.4286Z" fill="url(#paint0_linear_280_16237)"/>
<path d="M60.4628 26.2686C60.58 27.1665 60.3396 28.0744 59.7934 28.7965C59.2471 29.5187 58.4388 29.9971 57.5429 30.1286C57.1077 30.1829 56.666 30.1503 56.2436 30.0325C55.8211 29.9147 55.4264 29.7141 55.0822 29.4424C54.7379 29.1707 54.4509 28.8334 54.2382 28.4499C54.0254 28.0664 53.891 27.6445 53.8427 27.2086C53.4522 24.082 52.4343 21.0665 50.85 18.3429C49.2657 15.6193 47.1475 13.2437 44.6227 11.3586C41.4361 8.95586 37.6869 7.41002 33.7328 6.8686C31.4228 6.5286 30.2028 5.02859 30.5028 2.95859C30.7628 1.07859 32.3629 0.028602 34.5829 0.248602C46.8529 1.4886 57.8727 11.8386 60.1327 24.2486C60.2727 24.9986 60.3828 25.7786 60.4628 26.2686Z" fill="url(#paint1_linear_280_16237)"/>
<path d="M34.2126 10.3686C35.0739 10.5424 35.9252 10.7628 36.7626 11.0286C40.0418 12.0701 42.9946 13.9444 45.3327 16.4683C47.6709 18.9923 49.3143 22.0796 50.1025 25.4286C50.3659 26.1062 50.4112 26.8492 50.2319 27.5538C50.0526 28.2583 49.6577 28.8893 49.1025 29.3586C48.651 29.815 48.0583 30.105 47.4208 30.1813C46.7834 30.2576 46.1389 30.1156 45.5925 29.7786C44.7064 29.1893 44.0389 28.3249 43.6926 27.3186C42.2026 21.8586 38.8227 18.4186 33.3327 17.0386C32.4848 16.8889 31.7255 16.4221 31.2092 15.7331C30.6929 15.0441 30.4583 14.1844 30.5527 13.3286C30.6834 12.4675 31.1313 11.6864 31.8085 11.1387C32.4858 10.591 33.3432 10.3163 34.2126 10.3686Z" fill="url(#paint2_linear_280_16237)"/>
<defs>
<linearGradient id="paint0_linear_280_16237" x1="54" y1="3" x2="17" y2="47" gradientUnits="userSpaceOnUse">
<stop stop-color="#FC502B"/>
<stop offset="1" stop-color="#FF9431"/>
</linearGradient>
<linearGradient id="paint1_linear_280_16237" x1="57.1777" y1="1.70583" x2="38.866" y2="23.5975" gradientUnits="userSpaceOnUse">
<stop stop-color="#FC502B"/>
<stop offset="1" stop-color="#FF9431"/>
</linearGradient>
<linearGradient id="paint2_linear_280_16237" x1="48.1539" y1="11.3472" x2="36.0074" y2="25.7972" gradientUnits="userSpaceOnUse">
<stop stop-color="#FC502B"/>
<stop offset="1" stop-color="#FF9431"/>
</linearGradient>
</defs>
</svg>
