<svg width="75" height="60" viewBox="0 0 75 60" fill="none" xmlns="http://www.w3.org/2000/svg">
<path d="M74.9628 13.7734V42.5469C74.9628 45.2456 74.9628 47.9543 74.9628 50.6531C74.9855 51.8808 74.7615 53.1006 74.3042 54.2403C73.8469 55.3799 73.1655 56.4162 72.3005 57.2877C71.4354 58.1592 70.4041 58.8483 69.2679 59.3141C68.1317 59.7799 66.9137 60.013 65.6858 59.9995C46.8607 59.9995 28.0356 59.9995 9.21053 59.9995C6.81633 60.0181 4.5117 59.0902 2.79837 57.4178C1.08505 55.7453 0.101769 53.4638 0.0625912 51.0698C0.00305988 38.9552 0.0625912 26.8306 0.0625912 14.716C0.0625912 14.5176 0.0624264 14.3192 0.141801 13.9521C0.71727 14.2894 1.20348 14.5474 1.66981 14.845C12.8022 22.0483 23.9445 29.2119 35.0273 36.4747C35.7257 37.0505 36.6026 37.3654 37.5078 37.3654C38.4129 37.3654 39.2898 37.0505 39.9882 36.4747C50.9817 29.2615 62.0444 22.1574 73.0875 15.0137C73.6034 14.6069 74.1691 14.2695 74.9628 13.7734Z" fill="url(#paint0_linear_280_16245)"/>
<path d="M37.5567 0.0219756C46.923 0.0219756 56.2824 0.0219756 65.6354 0.0219756C67.6 0.000829293 69.5197 0.609957 71.1126 1.75997C72.7054 2.90998 73.8877 4.54032 74.4859 6.41167C74.5866 6.60133 74.6475 6.80953 74.6649 7.02355C74.6823 7.23757 74.6557 7.4529 74.5869 7.65632C74.5182 7.85975 74.4086 8.04701 74.265 8.20662C74.1214 8.36623 73.9468 8.49483 73.7517 8.58456C61.991 16.145 50.26 23.7353 38.5588 31.3553C38.2664 31.599 37.8977 31.7325 37.517 31.7325C37.1363 31.7325 36.7676 31.599 36.4751 31.3553C24.7673 23.7353 13.0364 16.145 1.28227 8.58456C1.0861 8.49715 0.909496 8.37108 0.76316 8.21388C0.616825 8.05669 0.503745 7.87159 0.430574 7.66968C0.357403 7.46776 0.325656 7.25317 0.337314 7.03872C0.348972 6.82427 0.403771 6.61439 0.498399 6.4216C1.10374 4.52506 2.30614 2.87515 3.92624 1.71818C5.54635 0.561221 7.49733 -0.0407463 9.48768 0.00214271C18.8407 0.00214271 28.1971 0.00874639 37.5567 0.0219756Z" fill="url(#paint1_linear_280_16245)"/>
<defs>
<linearGradient id="paint0_linear_280_16245" x1="67.6224" y1="16.0758" x2="48.0022" y2="64.275" gradientUnits="userSpaceOnUse">
<stop stop-color="#FC502B"/>
<stop offset="1" stop-color="#FF9431"/>
</linearGradient>
<linearGradient id="paint1_linear_280_16245" x1="67.3862" y1="1.5805" x2="57.3213" y2="37.3147" gradientUnits="userSpaceOnUse">
<stop stop-color="#FC502B"/>
<stop offset="1" stop-color="#FF9431"/>
</linearGradient>
</defs>
</svg>
