<svg width="65" height="65" viewBox="0 0 65 65" fill="none" xmlns="http://www.w3.org/2000/svg">
<path d="M32.3634 64.9997C23.7771 64.958 15.5555 61.5229 9.4919 55.4435C3.42827 49.3641 0.014483 41.1337 -0.00486747 32.5472C-0.00901621 28.2763 0.828253 24.0465 2.45914 20.0992C4.09003 16.152 6.48259 12.5647 9.50013 9.54223C12.5177 6.5198 16.1011 4.12146 20.0457 2.48418C23.9903 0.846908 28.2189 0.00276322 32.4899 0C41.1164 0.00836991 49.3867 3.44114 55.4837 9.54402C61.5806 15.6469 65.0054 23.9206 65.0054 32.5472C64.9985 36.823 64.148 41.0554 62.5028 45.0019C60.8576 48.9485 58.4501 52.5317 55.4179 55.5463C52.3857 58.5609 48.7886 60.9476 44.8325 62.5698C40.8764 64.192 36.6391 65.0177 32.3634 64.9997ZM29.5108 23.5052C29.5108 26.2736 29.3846 29.0525 29.5741 31.8104C29.669 33.0013 30.1368 34.132 30.9109 35.042C33.4372 37.7998 36.1738 40.3998 38.8264 43.0314C40.3843 44.5682 42.0896 44.7051 43.3738 43.4524C44.6581 42.1998 44.5527 40.4524 43.0369 38.9051C40.8369 36.663 38.553 34.5051 36.4267 32.2104C35.8432 31.5535 35.4981 30.7191 35.4475 29.842C35.3633 24.9788 35.4475 20.1262 35.4475 15.2631C35.4475 13.1578 34.2266 11.7894 32.4477 11.8315C30.6688 11.8736 29.5951 13.1578 29.5741 15.2105C29.4688 17.9789 29.4687 20.7473 29.4687 23.5052H29.5108Z" fill="url(#paint0_linear_280_16253)"/>
<defs>
<linearGradient id="paint0_linear_280_16253" x1="45" y1="2" x2="13.5" y2="62" gradientUnits="userSpaceOnUse">
<stop stop-color="#FC502B"/>
<stop offset="1" stop-color="#FF9431"/>
</linearGradient>
</defs>
</svg>
