<svg width="20" height="21" viewBox="0 0 20 21" fill="none" xmlns="http://www.w3.org/2000/svg">
<path d="M16.7165 3.01834C14.9222 1.22402 12.5365 0.23584 9.99902 0.23584C7.4615 0.23584 5.07585 1.22402 3.28153 3.01834C1.4872 4.81267 0.499023 7.19832 0.499023 9.73584C0.499023 11.0766 0.773049 12.373 1.31343 13.5891C1.78461 14.6493 2.43603 15.6013 3.25278 16.4238C3.01938 17.5954 2.52385 18.7138 1.8088 19.6767C1.6553 19.8834 1.63162 20.1591 1.74734 20.3891C1.86306 20.6192 2.0988 20.7644 2.3563 20.7644C4.35829 20.7644 6.25939 20.1543 7.87552 18.9969C8.57016 19.1556 9.28287 19.2358 9.99902 19.2358C12.5365 19.2358 14.9222 18.2477 16.7165 16.4533C18.5108 14.6591 19.499 12.2734 19.499 9.73584C19.499 7.19832 18.5108 4.81263 16.7165 3.01834ZM9.99902 17.8729C9.28943 17.8729 8.58401 17.781 7.90227 17.5997C7.6977 17.5454 7.47951 17.5891 7.31171 17.7182C6.22783 18.5519 4.98249 19.088 3.65564 19.2993C4.1559 18.3608 4.49799 17.3403 4.66004 16.29C4.69446 16.0671 4.6163 15.8416 4.45131 15.6877C2.80571 14.1534 1.86195 11.984 1.86195 9.7358C1.86195 5.249 5.51223 1.59873 9.99902 1.59873C14.4858 1.59873 18.1361 5.249 18.1361 9.7358C18.1361 14.2226 14.4858 17.8729 9.99902 17.8729ZM6.84777 9.7358C6.84777 10.1121 6.54266 10.4172 6.16633 10.4172H5.60768C5.23135 10.4172 4.92623 10.1121 4.92623 9.7358C4.92623 9.35947 5.23135 9.05435 5.60768 9.05435H6.16633C6.54266 9.05435 6.84777 9.35947 6.84777 9.7358ZM10.9685 9.7358C10.9685 10.1121 10.6634 10.4172 10.2871 10.4172H9.7284C9.35208 10.4172 9.04696 10.1121 9.04696 9.7358C9.04696 9.35947 9.35208 9.05435 9.7284 9.05435H10.2871C10.6634 9.05435 10.9685 9.35947 10.9685 9.7358ZM15.0893 9.7358C15.0893 10.1121 14.7842 10.4172 14.4078 10.4172H13.8492C13.4728 10.4172 13.1677 10.1121 13.1677 9.7358C13.1677 9.35947 13.4728 9.05435 13.8492 9.05435H14.4078C14.7842 9.05435 15.0893 9.35947 15.0893 9.7358Z" fill="#8B94AB"/>
</svg>
