<svg width="71" height="66" viewBox="0 0 71 66" fill="none" xmlns="http://www.w3.org/2000/svg">
<path fill-rule="evenodd" clip-rule="evenodd" d="M13.837 50.8514V60.149H4.54281V28.6093C4.54281 28.4155 4.61984 28.2296 4.75694 28.0925C4.8939 27.9555 5.07982 27.8785 5.27364 27.8785H13.1062C13.3 27.8785 13.4859 27.9555 13.6229 28.0925C13.76 28.2296 13.837 28.4155 13.837 28.6093V44.9812C13.3877 45.0284 12.9391 45.0675 12.491 45.099C11.1126 45.1849 10.0051 46.2771 9.90137 47.6588C9.79701 49.0469 10.7379 50.297 12.1004 50.5813C12.1229 50.586 12.1456 50.5904 12.1682 50.5943C12.719 50.6924 13.2754 50.7782 13.837 50.8514ZM21.804 43.2764V19.2631C21.804 18.8594 22.1312 18.5323 22.5349 18.5323H30.3673C30.771 18.5323 31.0981 18.8594 31.0981 19.2631V39.0034C30.7075 39.2411 30.3198 39.4675 29.9356 39.6818C27.1565 41.2319 24.455 42.4129 21.804 43.2764ZM39.0612 32.9512V9.50775C39.0612 9.10419 39.3883 8.77693 39.792 8.77693H47.6285C48.0321 8.77693 48.3593 9.10419 48.3593 9.50775V17.2466L46.3814 17.9627C45.2935 18.3564 44.5196 19.3286 44.3794 20.477C44.2392 21.6254 44.7566 22.755 45.7178 23.399L46.9377 24.2162C44.8499 27.1644 42.0703 30.2189 39.0612 32.9512ZM56.3223 14.3638V0.730826C56.3223 0.327264 56.6495 0 57.0531 0H64.8856C65.2892 0 65.6165 0.327264 65.6165 0.730826V60.149H56.3223V32.3119C56.6247 31.9119 56.9188 31.509 57.2042 31.1029L58.1807 31.7579C59.1709 32.4219 60.4559 32.4526 61.4766 31.8365C62.4973 31.2204 63.0689 30.0691 62.9427 28.8836L61.6225 16.4893C61.5227 15.5515 60.9971 14.7115 60.1974 14.2116C59.3976 13.7118 58.4123 13.6072 57.5255 13.9282L56.3223 14.3638ZM48.3593 40.4587V60.149H39.0612V46.3417C39.8762 45.9434 40.687 45.5199 41.492 45.0709L41.4928 45.0705C43.9628 43.692 46.2564 42.1426 48.3593 40.4587ZM31.0981 49.4117V60.149H21.804V51.0714C24.8554 50.8573 27.9769 50.3082 31.0981 49.4117ZM0 65.2692V63.2185C0 63.0247 0.0770291 62.8387 0.213986 62.7016C0.351089 62.5645 0.537011 62.4877 0.730826 62.4877H69.4284C69.6223 62.4877 69.8082 62.5645 69.9453 62.7016C70.0822 62.8387 70.1593 63.0247 70.1593 63.2185V65.2692C70.1593 65.463 70.0822 65.6489 69.9453 65.7859C69.8082 65.923 69.6223 66 69.4284 66H0.730826C0.537011 66 0.351089 65.923 0.213986 65.7859C0.0770291 65.6489 0 65.463 0 65.2692ZM56.5516 27.8494C52.8982 33.7501 47.3713 39.1115 40.3531 43.0284C31.1307 48.1711 21.1409 49.816 12.5779 48.2919C12.3644 48.2474 12.2171 48.0515 12.2334 47.834C12.2497 47.6165 12.4248 47.4448 12.6426 47.4326C18.5929 47.0172 24.6383 45.3144 31.075 41.7242C38.0123 37.854 46.0924 30.2071 50.1707 23.5671L47.0194 21.456C46.7905 21.3027 46.6675 21.0338 46.7008 20.7603C46.7341 20.4868 46.9184 20.2554 47.1774 20.1616L58.3215 16.1273C58.5327 16.0508 58.7673 16.0757 58.9578 16.1947C59.1481 16.3138 59.2733 16.5137 59.297 16.7371L60.6172 29.1313C60.6473 29.4135 60.5112 29.6876 60.2681 29.8344C60.0251 29.9811 59.7191 29.9738 59.4834 29.8156L56.5516 27.8494Z" fill="url(#paint0_linear_46_1133)"/>
<defs>
<linearGradient id="paint0_linear_46_1133" x1="66" y1="-0.999999" x2="31" y2="57.5" gradientUnits="userSpaceOnUse">
<stop stop-color="#FC502B"/>
<stop offset="1" stop-color="#FF9431"/>
</linearGradient>
</defs>
</svg>
