<svg width="68" height="68" viewBox="0 0 68 68" fill="none" xmlns="http://www.w3.org/2000/svg">
<path d="M38.9305 17.7796C38.9305 15.0556 36.7187 12.8396 34 12.8396C31.2813 12.8396 29.0696 15.0557 29.0696 17.7796C29.0696 18.1599 29.1116 18.5323 29.1953 18.8946H38.8049C38.8885 18.5323 38.9305 18.1597 38.9305 17.7796Z" fill="url(#paint0_linear_46_1154)"/>
<path d="M48.9472 15.3679C48.2672 15.2041 47.7278 14.6877 47.5346 14.0156C47.2438 13.0034 46.8313 12.0203 46.3086 11.0937C45.9612 10.4777 45.9759 9.72167 46.3471 9.1197L48.0147 6.41481L45.5815 4.01883L42.7973 5.68323C42.2048 6.03761 41.4683 6.05055 40.8632 5.71752C39.9202 5.19822 38.9186 4.78732 37.8861 4.49614C37.2143 4.30667 36.6958 3.77167 36.5277 3.09429L35.7593 0H32.2832L31.5182 3.08136C31.3495 3.76063 30.8284 4.29679 30.1541 4.4848C29.1212 4.77264 28.1182 5.18064 27.1733 5.69747C26.5693 6.02788 25.8352 6.01379 25.2442 5.66042L22.4486 3.98919L20.0154 6.38517L21.6762 9.07873C22.0484 9.68244 22.0621 10.4411 21.7118 11.0578C21.1865 11.9827 20.7711 12.9645 20.477 13.976C20.2823 14.6454 19.744 15.1593 19.0662 15.3225L15.9141 16.0814V18.8944H25.2553C25.2093 18.5272 25.1839 18.1556 25.1839 17.7794C25.1839 12.9129 29.1388 8.95362 34 8.95362C38.8613 8.95362 42.8162 12.9129 42.8162 17.7794C42.8162 18.1556 42.7909 18.5271 42.7447 18.8944H52.086V16.1234L48.9472 15.3679Z" fill="url(#paint1_linear_46_1154)"/>
<path d="M0 59.0535V66.66C0 67.3986 0.600957 67.9997 1.33966 67.9997H66.6603C67.399 67.9997 68 67.3987 68 66.66V59.0535H46.7934L45.3158 62.7201C45.0195 63.4553 44.3064 63.9367 43.5138 63.9367H24.4514C23.6588 63.9367 22.9456 63.4553 22.6494 62.7201L21.1715 59.0535H0Z" fill="url(#paint2_linear_46_1154)"/>
<path d="M61.5148 22.78H6.48563C5.77148 22.78 5.19043 23.3611 5.19043 24.0752V55.1681H22.4836C23.2763 55.1681 23.9894 55.6495 24.2856 56.3847L25.7635 60.0513H42.2025L43.6803 56.3847C43.9766 55.6496 44.6897 55.1681 45.4823 55.1681H62.8101V24.0754C62.8101 23.3611 62.2291 22.78 61.5148 22.78ZM27.1601 36.7132L20.0978 40.2531L27.1601 43.793V47.5191L15.3503 41.4364V39.0695L27.1601 32.9869V36.7132ZM32.7893 47.7211H29.2217L35.8884 30.3985H39.4796L32.7893 47.7211ZM52.6501 41.459L40.8403 47.5161V43.791L47.9523 40.253L40.8403 36.7149V32.9902L52.6501 39.0473V41.459Z" fill="url(#paint3_linear_46_1154)"/>
<defs>
<linearGradient id="paint0_linear_46_1154" x1="38.7014" y1="12.9286" x2="35.8853" y2="19.0627" gradientUnits="userSpaceOnUse">
<stop stop-color="#FC502B"/>
<stop offset="1" stop-color="#FF9431"/>
</linearGradient>
<linearGradient id="paint1_linear_46_1154" x1="51.2458" y1="0.277859" x2="43.3926" y2="20.3861" gradientUnits="userSpaceOnUse">
<stop stop-color="#FC502B"/>
<stop offset="1" stop-color="#FF9431"/>
</linearGradient>
<linearGradient id="paint2_linear_46_1154" x1="66.4204" y1="59.185" x2="65.3514" y2="70.053" gradientUnits="userSpaceOnUse">
<stop stop-color="#FC502B"/>
<stop offset="1" stop-color="#FF9431"/>
</linearGradient>
<linearGradient id="paint3_linear_46_1154" x1="61.4717" y1="23.3281" x2="43.5533" y2="60.3781" gradientUnits="userSpaceOnUse">
<stop stop-color="#FC502B"/>
<stop offset="1" stop-color="#FF9431"/>
</linearGradient>
</defs>
</svg>
