<svg width="61" height="68" viewBox="0 0 61 68" fill="none" xmlns="http://www.w3.org/2000/svg">
<path d="M11.7219 46.3104C10.8991 45.6897 10.1133 45.0087 9.37169 44.2671C8.48925 43.3846 7.69182 42.4402 6.9812 41.4443L0.994822 47.4306C0.35331 48.0721 0 48.9249 0 49.8323C0 50.7394 0.35331 51.5924 0.994822 52.2339C2.31919 53.558 4.47392 53.5581 5.79816 52.234L11.7219 46.3104Z" fill="url(#paint0_linear_46_1162)"/>
<path d="M37.9075 41.463C41.3043 38.0335 43.1746 33.4908 43.1746 28.6604C43.1746 27.1258 42.9854 25.6204 42.619 24.1702H37.9075V41.463Z" fill="url(#paint1_linear_46_1162)"/>
<path d="M60.9065 10.1278L51.708 0.929688L51.709 10.1278H60.9065Z" fill="url(#paint2_linear_46_1162)"/>
<path d="M24.9785 10.4641C20.1181 10.4641 15.5487 12.3567 12.112 15.7936C8.67523 19.2305 6.78247 23.8 6.78247 28.6603C6.78247 33.5206 8.6751 38.09 12.112 41.5268C15.5488 44.9637 20.1182 46.8563 24.9785 46.8563C28.2071 46.8563 31.3068 46.0203 34.032 44.452V24.1699H20.3484V29.667H16.473V20.2945H41.1461C40.2954 18.6548 39.1889 17.1372 37.8451 15.7935C34.4083 12.3567 29.8389 10.4641 24.9785 10.4641Z" fill="url(#paint3_linear_46_1162)"/>
<path d="M60.9063 14.0032H47.834L47.8323 0.929688H11.033V11.5502C14.9611 8.33653 19.8353 6.58884 24.9784 6.58884C30.874 6.58884 36.4165 8.88465 40.5853 13.0534C42.692 15.1601 44.3195 17.6181 45.415 20.2948H55.4664V29.6673H51.591V24.1702H46.5941C46.8946 25.6317 47.0498 27.134 47.0498 28.6604C47.0498 34.556 44.754 40.0985 40.5852 44.2672C39.7457 45.1066 38.8497 45.8686 37.9072 46.5528V56.2119H42.8546V60.0873H29.0847V56.2119H34.0319V48.8012C31.2224 50.0655 28.1518 50.7318 24.9784 50.7318C21.4925 50.7318 18.1302 49.9286 15.1022 48.4108L11.033 52.48V67.0703H60.9063V14.0032Z" fill="url(#paint4_linear_46_1162)"/>
<defs>
<linearGradient id="paint0_linear_46_1162" x1="12.2839" y1="41.0115" x2="6.61867" y2="50.9339" gradientUnits="userSpaceOnUse">
<stop stop-color="#FC502B"/>
<stop offset="1" stop-color="#FF9431"/>
</linearGradient>
<linearGradient id="paint1_linear_46_1162" x1="43.4271" y1="23.5349" x2="35.3851" y2="27.8473" gradientUnits="userSpaceOnUse">
<stop stop-color="#FC502B"/>
<stop offset="1" stop-color="#FF9431"/>
</linearGradient>
<linearGradient id="paint2_linear_46_1162" x1="61.3475" y1="0.591795" x2="56.9367" y2="8.35745" gradientUnits="userSpaceOnUse">
<stop stop-color="#FC502B"/>
<stop offset="1" stop-color="#FF9431"/>
</linearGradient>
<linearGradient id="paint3_linear_46_1162" x1="42.7939" y1="9.12724" x2="24.8442" y2="38.9667" gradientUnits="userSpaceOnUse">
<stop stop-color="#FC502B"/>
<stop offset="1" stop-color="#FF9431"/>
</linearGradient>
<linearGradient id="paint4_linear_46_1162" x1="63.2977" y1="-1.5" x2="27.8043" y2="45.6187" gradientUnits="userSpaceOnUse">
<stop stop-color="#FC502B"/>
<stop offset="1" stop-color="#FF9431"/>
</linearGradient>
</defs>
</svg>
