<svg width="70" height="64" viewBox="0 0 70 64" fill="none" xmlns="http://www.w3.org/2000/svg">
<path d="M34.9801 6.22736C19.7222 -7.11784 0.322065 4.60764 0.00394488 20.5034C-0.0771232 24.5545 1.09228 28.5006 3.42001 32.1385H18.5077L21.1913 27.6657C21.9705 26.3671 23.8563 26.3253 24.6797 27.6199L30.3417 36.5173L38.5952 19.0937C39.315 17.5733 41.4601 17.5251 42.2539 18.9993L49.3289 32.1385H66.5402C79.2899 12.2119 54.0922 -10.4887 34.9801 6.22736Z" fill="black"/>
<path d="M34.9801 6.22736C19.7222 -7.11784 0.322065 4.60764 0.00394488 20.5034C-0.0771232 24.5545 1.09228 28.5006 3.42001 32.1385H18.5077L21.1913 27.6657C21.9705 26.3671 23.8563 26.3253 24.6797 27.6199L30.3417 36.5173L38.5952 19.0937C39.315 17.5733 41.4601 17.5251 42.2539 18.9993L49.3289 32.1385H66.5402C79.2899 12.2119 54.0922 -10.4887 34.9801 6.22736Z" fill="url(#paint0_linear_95_2837)"/>
<path d="M46.2987 35.1614L40.5657 24.5144L32.4587 41.6289C31.7691 43.085 29.7404 43.2115 28.8755 41.852L23.0011 32.6211L21.4272 35.2442C21.0566 35.8619 20.3892 36.2397 19.6689 36.2397H6.66406C7.07173 36.6664 4.89902 34.4981 33.5338 62.9846C34.3336 63.7803 35.6264 63.7805 36.4263 62.9846C64.6205 34.9364 62.8892 36.6656 63.2961 36.2397H48.1042C47.3497 36.2399 46.6563 35.8257 46.2987 35.1614Z" fill="black"/>
<path d="M46.2987 35.1614L40.5657 24.5144L32.4587 41.6289C31.7691 43.085 29.7404 43.2115 28.8755 41.852L23.0011 32.6211L21.4272 35.2442C21.0566 35.8619 20.3892 36.2397 19.6689 36.2397H6.66406C7.07173 36.6664 4.89902 34.4981 33.5338 62.9846C34.3336 63.7803 35.6264 63.7805 36.4263 62.9846C64.6205 34.9364 62.8892 36.6656 63.2961 36.2397H48.1042C47.3497 36.2399 46.6563 35.8257 46.2987 35.1614Z" fill="url(#paint1_linear_95_2837)"/>
<defs>
<linearGradient id="paint0_linear_95_2837" x1="65.8502" y1="-0.128494" x2="52.9835" y2="39.1014" gradientUnits="userSpaceOnUse">
<stop stop-color="#FC502B"/>
<stop offset="1" stop-color="#FF9431"/>
</linearGradient>
<linearGradient id="paint1_linear_95_2837" x1="59.9387" y1="23.9225" x2="42.6384" y2="63.3548" gradientUnits="userSpaceOnUse">
<stop stop-color="#FC502B"/>
<stop offset="1" stop-color="#FF9431"/>
</linearGradient>
</defs>
</svg>
