<svg width="70" height="70" viewBox="0 0 70 70" fill="none" xmlns="http://www.w3.org/2000/svg">
<path d="M67.9492 41.1524H65.2363L58.2643 24.0642C60.269 23.049 61.6602 20.9906 61.6602 18.5938C61.6602 17.4602 60.7429 16.543 59.6094 16.543C58.4758 16.543 57.5586 17.4602 57.5586 18.5938C57.5586 19.7253 56.6393 20.6446 55.5078 20.6446C54.4403 20.6446 53.9156 20.252 52.8281 19.3649C51.3702 18.1751 49.3715 16.543 45.2539 16.543C42.4596 16.543 40.5906 17.306 39.3226 18.3257C38.6877 17.6973 37.9087 17.2267 37.0508 16.9208V16.1652C39.4327 15.3158 41.1523 13.0608 41.1523 10.3907C41.1523 7.76908 38.0301 2.77679 36.6883 0.832104C35.9193 -0.277368 34.0808 -0.277368 33.3118 0.832104C31.9699 2.77679 28.8477 7.76908 28.8477 10.3907C28.8477 13.0608 30.5673 15.3158 32.9492 16.1652V16.9208C32.0913 17.2267 31.3123 17.6973 30.6774 18.3257C29.4094 17.306 27.5404 16.543 24.7461 16.543C20.6285 16.543 18.6298 18.1751 17.1719 19.3649C16.0844 20.252 15.5597 20.6446 14.4922 20.6446C13.3607 20.6446 12.4414 19.7253 12.4414 18.5938C12.4414 17.4602 11.5242 16.543 10.3906 16.543C9.25709 16.543 8.33984 17.4602 8.33984 18.5938C8.33984 20.9906 9.73096 23.049 11.7357 24.0642L4.76369 41.1524H2.05078C0.917246 41.1524 0 42.0696 0 43.2032C0 48.8569 4.60018 53.4571 10.2539 53.4571H18.5938C24.2475 53.4571 28.8477 48.8569 28.8477 43.2032C28.8477 42.0696 27.9304 41.1524 26.7969 41.1524H24.084L17.2822 24.1478C18.2883 23.7038 19.0874 23.0966 19.7653 22.5432C21.013 21.5238 22.0905 20.6446 24.7461 20.6446C28.4912 20.6446 28.8217 22.3749 28.8477 22.7454C28.8479 22.7599 28.8561 22.7716 28.857 22.7861C28.8961 25.4159 30.5951 27.6305 32.9492 28.4698V58.073C30.5673 58.9224 28.8477 61.1774 28.8477 63.8476C28.8477 64.979 27.9284 65.8983 26.7969 65.8983H22.6953C21.5618 65.8983 20.6445 66.8156 20.6445 67.9491C20.6445 69.0826 21.5618 69.9999 22.6953 69.9999H47.3047C48.4382 69.9999 49.3555 69.0826 49.3555 67.9491C49.3555 66.8156 48.4382 65.8983 47.3047 65.8983H43.2031C42.0716 65.8983 41.1523 64.979 41.1523 63.8476C41.1523 61.1774 39.4327 58.9224 37.0508 58.073V28.4699C39.4079 27.6293 41.1087 25.4106 41.1441 22.7764C41.1447 22.7682 41.1499 22.7617 41.1504 22.7535C41.1744 22.4029 41.4788 20.6446 45.2539 20.6446C47.9095 20.6446 48.987 21.5238 50.2347 22.5432C50.9126 23.0966 51.7117 23.7038 52.7178 24.1478L45.916 41.1524H43.2031C42.0696 41.1524 41.1523 42.0696 41.1523 43.2032C41.1523 48.8569 45.7525 53.4571 51.4062 53.4571H59.7461C65.3998 53.4571 70 48.8569 70 43.2032C70 42.0696 69.0828 41.1524 67.9492 41.1524ZM9.18176 41.1524L14.4922 28.2178L19.6659 41.1524H9.18176ZM50.3341 41.1524L55.5078 28.2178L60.8182 41.1524H50.3341Z" fill="url(#paint0_linear_95_2844)"/>
<defs>
<linearGradient id="paint0_linear_95_2844" x1="65.8502" y1="-1.0606" x2="27.6972" y2="58.929" gradientUnits="userSpaceOnUse">
<stop stop-color="#FC502B"/>
<stop offset="1" stop-color="#FF9431"/>
</linearGradient>
</defs>
</svg>
