<svg width="22" height="17" viewBox="0 0 22 17" fill="none" xmlns="http://www.w3.org/2000/svg">
<g clip-path="url(#clip0_1_126)">
<path fill-rule="evenodd" clip-rule="evenodd" d="M0 0V16.5H22V0H0Z" fill="#2E42A5"/>
<mask id="mask0_1_126" style="mask-type:luminance" maskUnits="userSpaceOnUse" x="0" y="0" width="22" height="17">
<path fill-rule="evenodd" clip-rule="evenodd" d="M0 0V16.5H22V0H0Z" fill="white"/>
</mask>
<g mask="url(#mask0_1_126)">
<path d="M-2.44957 15.3209L2.39181 17.369L22.1093 2.22613L24.6634 -0.816746L19.4865 -1.50081L11.4441 5.02425L4.97062 9.4215L-2.44957 15.3209Z" fill="white"/>
<path d="M-1.78751 16.7558L0.679931 17.9438L23.7462 -1.09931H20.2833L-1.78751 16.7558Z" fill="#F50100"/>
<path d="M24.4496 15.3209L19.6082 17.369L-0.109313 2.22613L-2.66338 -0.816746L2.5135 -1.50081L10.5559 5.02425L17.0294 9.4215L24.4496 15.3209Z" fill="white"/>
<path d="M24.2846 16.3508L21.8178 17.5388L11.9962 9.38506L9.08394 8.47481L-2.9095 -0.806435H0.554125L12.54 8.25481L15.7238 9.34656L24.2846 16.3508Z" fill="#F50100"/>
<path fill-rule="evenodd" clip-rule="evenodd" d="M13.5974 -1.375H8.40263V5.5H-1.35574V11H8.40263V17.875H13.5974V11H23.3943V5.5H13.5974V-1.375Z" fill="#F50100"/>
<mask id="mask1_1_126" style="mask-type:luminance" maskUnits="userSpaceOnUse" x="-2" y="-2" width="26" height="20">
<path fill-rule="evenodd" clip-rule="evenodd" d="M13.5974 -1.375H8.40263V5.5H-1.35574V11H8.40263V17.875H13.5974V11H23.3943V5.5H13.5974V-1.375Z" fill="white"/>
</mask>
<g mask="url(#mask1_1_126)">
<path d="M8.40263 -1.375V-2.75H7.02763V-1.375H8.40263ZM13.5974 -1.375H14.9724V-2.75H13.5974V-1.375ZM8.40263 5.5V6.875H9.77763V5.5H8.40263ZM-1.35574 5.5V4.125H-2.73074V5.5H-1.35574ZM-1.35574 11H-2.73074V12.375H-1.35574V11ZM8.40263 11H9.77763V9.625H8.40263V11ZM8.40263 17.875H7.02763V19.25H8.40263V17.875ZM13.5974 17.875V19.25H14.9724V17.875H13.5974ZM13.5974 11V9.625H12.2224V11H13.5974ZM23.3943 11V12.375H24.7693V11H23.3943ZM23.3943 5.5H24.7693V4.125H23.3943V5.5ZM13.5974 5.5H12.2224V6.875H13.5974V5.5ZM8.40263 0H13.5974V-2.75H8.40263V0ZM9.77763 5.5V-1.375H7.02763V5.5H9.77763ZM-1.35574 6.875H8.40263V4.125H-1.35574V6.875ZM0.0192566 11V5.5H-2.73074V11H0.0192566ZM8.40263 9.625H-1.35574V12.375H8.40263V9.625ZM9.77763 17.875V11H7.02763V17.875H9.77763ZM13.5974 16.5H8.40263V19.25H13.5974V16.5ZM12.2224 11V17.875H14.9724V11H12.2224ZM23.3943 9.625H13.5974V12.375H23.3943V9.625ZM22.0193 5.5V11H24.7693V5.5H22.0193ZM13.5974 6.875H23.3943V4.125H13.5974V6.875ZM12.2224 -1.375V5.5H14.9724V-1.375H12.2224Z" fill="white"/>
</g>
</g>
</g>
<defs>
<clipPath id="clip0_1_126">
<rect width="22" height="16.5" rx="1" fill="white"/>
</clipPath>
</defs>
</svg>
