<svg width="71" height="66" viewBox="0 0 71 66" fill="none" xmlns="http://www.w3.org/2000/svg">
<path fill-rule="evenodd" clip-rule="evenodd" d="M14.2574 50.8514V60.149H4.96322V28.6093C4.96322 28.4155 5.04025 28.2296 5.17735 28.0925C5.31431 27.9555 5.50023 27.8785 5.69405 27.8785H13.5266C13.7204 27.8785 13.9063 27.9555 14.0433 28.0925C14.1804 28.2296 14.2574 28.4155 14.2574 28.6093V44.9812C13.8081 45.0284 13.3595 45.0675 12.9114 45.099C11.5331 45.1849 10.4256 46.2771 10.3218 47.6588C10.2174 49.0469 11.1583 50.297 12.5208 50.5813C12.5433 50.586 12.566 50.5904 12.5887 50.5943C13.1394 50.6924 13.6959 50.7782 14.2574 50.8514ZM22.2244 43.2764V19.2631C22.2244 18.8594 22.5516 18.5323 22.9553 18.5323H30.7877C31.1914 18.5323 31.5185 18.8594 31.5185 19.2631V39.0034C31.128 39.2411 30.7402 39.4675 30.3561 39.6818C27.5769 41.2319 24.8754 42.4129 22.2244 43.2764ZM39.4816 32.9512V9.50775C39.4816 9.10419 39.8087 8.77693 40.2124 8.77693H48.0489C48.4525 8.77693 48.7797 9.10419 48.7797 9.50775V17.2466L46.8018 17.9627C45.7139 18.3564 44.94 19.3286 44.7998 20.477C44.6596 21.6254 45.1771 22.755 46.1382 23.399L47.3581 24.2162C45.2703 27.1644 42.4907 30.2189 39.4816 32.9512ZM56.7427 14.3638V0.730826C56.7427 0.327264 57.0699 0 57.4735 0H65.306C65.7096 0 66.0369 0.327264 66.0369 0.730826V60.149H56.7427V32.3119C57.0451 31.9119 57.3392 31.509 57.6246 31.1029L58.6012 31.7579C59.5913 32.4219 60.8764 32.4526 61.897 31.8365C62.9177 31.2204 63.4894 30.0691 63.3631 28.8836L62.0429 16.4893C61.9431 15.5515 61.4175 14.7115 60.6178 14.2116C59.818 13.7118 58.8327 13.6072 57.9459 13.9282L56.7427 14.3638ZM48.7797 40.4587V60.149H39.4816V46.3417C40.2966 45.9434 41.1074 45.5199 41.9125 45.0709L41.9132 45.0705C44.3832 43.692 46.6769 42.1426 48.7797 40.4587ZM31.5185 49.4117V60.149H22.2244V51.0714C25.2758 50.8573 28.3973 50.3082 31.5185 49.4117ZM0.42041 65.2692V63.2185C0.42041 63.0247 0.497439 62.8387 0.634396 62.7016C0.771499 62.5645 0.957421 62.4877 1.15124 62.4877H69.8489C70.0427 62.4877 70.2286 62.5645 70.3657 62.7016C70.5027 62.8387 70.5797 63.0247 70.5797 63.2185V65.2692C70.5797 65.463 70.5027 65.6489 70.3657 65.7859C70.2286 65.923 70.0427 66 69.8489 66H1.15124C0.957421 66 0.771499 65.923 0.634396 65.7859C0.497439 65.6489 0.42041 65.463 0.42041 65.2692ZM56.972 27.8494C53.3186 33.7501 47.7917 39.1115 40.7735 43.0284C31.5511 48.1711 21.5613 49.816 12.9984 48.2919C12.7848 48.2474 12.6375 48.0515 12.6538 47.834C12.6701 47.6165 12.8452 47.4448 13.063 47.4326C19.0133 47.0172 25.0587 45.3144 31.4954 41.7242C38.4327 37.854 46.5129 30.2071 50.5912 23.5671L47.4398 21.456C47.2109 21.3027 47.0879 21.0338 47.1212 20.7603C47.1545 20.4868 47.3388 20.2554 47.5978 20.1616L58.7419 16.1273C58.9531 16.0508 59.1877 16.0757 59.3782 16.1947C59.5685 16.3138 59.6937 16.5137 59.7174 16.7371L61.0376 29.1313C61.0677 29.4135 60.9316 29.6876 60.6885 29.8344C60.4455 29.9811 60.1395 29.9738 59.9038 29.8156L56.972 27.8494Z" fill="url(#paint0_linear_175_5189)"/>
<defs>
<linearGradient id="paint0_linear_175_5189" x1="66.4204" y1="-0.999999" x2="31.4204" y2="57.5" gradientUnits="userSpaceOnUse">
<stop stop-color="#FC502B"/>
<stop offset="1" stop-color="#FF9431"/>
</linearGradient>
</defs>
</svg>
