<svg width="69" height="68" viewBox="0 0 69 68" fill="none" xmlns="http://www.w3.org/2000/svg">
<path d="M39.4305 17.7794C39.4305 15.0553 37.2187 12.8394 34.5 12.8394C31.7813 12.8394 29.5696 15.0555 29.5696 17.7794C29.5696 18.1596 29.6116 18.532 29.6953 18.8944H39.3049C39.3885 18.532 39.4305 18.1595 39.4305 17.7794Z" fill="url(#paint0_linear_175_5260)"/>
<path d="M49.4472 15.3679C48.7672 15.2041 48.2278 14.6877 48.0346 14.0156C47.7438 13.0034 47.3313 12.0203 46.8086 11.0937C46.4612 10.4777 46.4759 9.72167 46.8471 9.1197L48.5147 6.41481L46.0815 4.01883L43.2973 5.68323C42.7048 6.03761 41.9683 6.05055 41.3632 5.71752C40.4202 5.19822 39.4186 4.78732 38.3861 4.49614C37.7143 4.30667 37.1958 3.77167 37.0277 3.09429L36.2593 0H32.7832L32.0182 3.08136C31.8495 3.76063 31.3284 4.29679 30.6541 4.4848C29.6212 4.77264 28.6182 5.18064 27.6733 5.69747C27.0693 6.02788 26.3352 6.01379 25.7442 5.66042L22.9486 3.98919L20.5154 6.38517L22.1762 9.07873C22.5484 9.68244 22.5621 10.4411 22.2118 11.0578C21.6865 11.9827 21.2711 12.9645 20.977 13.976C20.7823 14.6454 20.244 15.1593 19.5662 15.3225L16.4141 16.0814V18.8944H25.7553C25.7093 18.5272 25.6839 18.1556 25.6839 17.7794C25.6839 12.9129 29.6388 8.95362 34.5 8.95362C39.3613 8.95362 43.3162 12.9129 43.3162 17.7794C43.3162 18.1556 43.2909 18.5271 43.2447 18.8944H52.586V16.1234L49.4472 15.3679Z" fill="url(#paint1_linear_175_5260)"/>
<path d="M0.5 59.0537V66.6603C0.5 67.3988 1.10096 67.9999 1.83966 67.9999H67.1603C67.899 67.9999 68.5 67.399 68.5 66.6603V59.0537H47.2934L45.8158 62.7203C45.5195 63.4556 44.8064 63.9369 44.0138 63.9369H24.9514C24.1588 63.9369 23.4456 63.4556 23.1494 62.7203L21.6715 59.0537H0.5Z" fill="url(#paint2_linear_175_5260)"/>
<path d="M62.0148 22.7798H6.98563C6.27148 22.7798 5.69043 23.3608 5.69043 24.075V55.1678H22.9836C23.7763 55.1678 24.4894 55.6492 24.7856 56.3844L26.2635 60.0511H42.7025L44.1803 56.3844C44.4766 55.6494 45.1897 55.1678 45.9823 55.1678H63.3101V24.0751C63.3101 23.3608 62.7291 22.7798 62.0148 22.7798ZM27.6601 36.713L20.5978 40.2529L27.6601 43.7928V47.5189L15.8503 41.4362V39.0693L27.6601 32.9866V36.713ZM33.2893 47.7208H29.7217L36.3884 30.3983H39.9796L33.2893 47.7208ZM53.1501 41.4587L41.3403 47.5158V43.7908L48.4523 40.2527L41.3403 36.7147V32.99L53.1501 39.047V41.4587Z" fill="url(#paint3_linear_175_5260)"/>
<defs>
<linearGradient id="paint0_linear_175_5260" x1="39.2014" y1="12.9284" x2="36.3853" y2="19.0624" gradientUnits="userSpaceOnUse">
<stop stop-color="#FC502B"/>
<stop offset="1" stop-color="#FF9431"/>
</linearGradient>
<linearGradient id="paint1_linear_175_5260" x1="51.7458" y1="0.277859" x2="43.8926" y2="20.3861" gradientUnits="userSpaceOnUse">
<stop stop-color="#FC502B"/>
<stop offset="1" stop-color="#FF9431"/>
</linearGradient>
<linearGradient id="paint2_linear_175_5260" x1="66.9204" y1="59.1853" x2="65.8514" y2="70.0533" gradientUnits="userSpaceOnUse">
<stop stop-color="#FC502B"/>
<stop offset="1" stop-color="#FF9431"/>
</linearGradient>
<linearGradient id="paint3_linear_175_5260" x1="61.9717" y1="23.3279" x2="44.0533" y2="60.3778" gradientUnits="userSpaceOnUse">
<stop stop-color="#FC502B"/>
<stop offset="1" stop-color="#FF9431"/>
</linearGradient>
</defs>
</svg>
