<svg width="61" height="67" viewBox="0 0 61 67" fill="none" xmlns="http://www.w3.org/2000/svg">
<path d="M11.7686 45.3808C10.9459 44.76 10.1601 44.079 9.41844 43.3374C8.53601 42.4549 7.73857 41.5105 7.02795 40.5146L1.04158 46.5009C0.400063 47.1424 0.0467529 47.9953 0.0467529 48.9026C0.0467529 49.8097 0.400063 50.6627 1.04158 51.3042C2.36594 52.6283 4.52068 52.6285 5.84491 51.3044L11.7686 45.3808Z" fill="url(#paint0_linear_178_6018)"/>
<path d="M37.9543 40.533C41.3512 37.1035 43.2214 32.5609 43.2214 27.7304C43.2214 26.1959 43.0323 24.6904 42.6658 23.2402H37.9543V40.533Z" fill="url(#paint1_linear_178_6018)"/>
<path d="M60.9532 9.19807L51.7548 0L51.7558 9.19807H60.9532Z" fill="url(#paint2_linear_178_6018)"/>
<path d="M25.0254 9.53418C20.165 9.53418 15.5956 11.4268 12.1588 14.8637C8.7221 18.3005 6.82935 22.87 6.82935 27.7303C6.82935 32.5906 8.72198 37.16 12.1588 40.5969C15.5957 44.0337 20.1651 45.9264 25.0254 45.9264C28.254 45.9264 31.3537 45.0903 34.0789 43.5221V23.24H20.3953V28.7371H16.5199V19.3646H41.193C40.3422 17.7249 39.2358 16.2073 37.8919 14.8635C34.4552 11.4268 29.8858 9.53418 25.0254 9.53418Z" fill="url(#paint3_linear_178_6018)"/>
<path d="M60.9531 13.0735H47.8808L47.8791 0H11.0797V10.6205C15.0078 7.40685 19.8821 5.65916 25.0252 5.65916C30.9207 5.65916 36.4632 7.95496 40.632 12.1238C42.7387 14.2304 44.3663 16.6884 45.4617 19.3651H55.5132V28.7376H51.6377V23.2405H46.6409C46.9414 24.702 47.0965 26.2043 47.0965 27.7307C47.0965 33.6263 44.8007 39.1688 40.6319 43.3375C39.7925 44.1769 38.8965 44.9389 37.954 45.6231V55.2822H42.9014V59.1576H29.1315V55.2822H34.0787V47.8715C31.2691 49.1358 28.1985 49.8021 25.0252 49.8021C21.5392 49.8021 18.1769 48.999 15.1489 47.4811L11.0797 51.5503V66.1406H60.9531V13.0735Z" fill="url(#paint4_linear_178_6018)"/>
<defs>
<linearGradient id="paint0_linear_178_6018" x1="12.3307" y1="40.0818" x2="6.66542" y2="50.0042" gradientUnits="userSpaceOnUse">
<stop stop-color="#FC502B"/>
<stop offset="1" stop-color="#FF9431"/>
</linearGradient>
<linearGradient id="paint1_linear_178_6018" x1="43.474" y1="22.605" x2="35.4319" y2="26.9174" gradientUnits="userSpaceOnUse">
<stop stop-color="#FC502B"/>
<stop offset="1" stop-color="#FF9431"/>
</linearGradient>
<linearGradient id="paint2_linear_178_6018" x1="61.3943" y1="-0.337893" x2="56.9835" y2="7.42776" gradientUnits="userSpaceOnUse">
<stop stop-color="#FC502B"/>
<stop offset="1" stop-color="#FF9431"/>
</linearGradient>
<linearGradient id="paint3_linear_178_6018" x1="42.8407" y1="8.1973" x2="24.8911" y2="38.0368" gradientUnits="userSpaceOnUse">
<stop stop-color="#FC502B"/>
<stop offset="1" stop-color="#FF9431"/>
</linearGradient>
<linearGradient id="paint4_linear_178_6018" x1="63.3445" y1="-2.42969" x2="27.851" y2="44.689" gradientUnits="userSpaceOnUse">
<stop stop-color="#FC502B"/>
<stop offset="1" stop-color="#FF9431"/>
</linearGradient>
</defs>
</svg>
