<svg width="71" height="64" viewBox="0 0 71 64" fill="none" xmlns="http://www.w3.org/2000/svg">
<path d="M35.4801 5.8089C20.2222 -7.5363 0.822065 4.18918 0.503945 20.0849C0.422877 24.136 1.59228 28.0821 3.92001 31.7201H19.0077L21.6913 27.2472C22.4705 25.9486 24.3563 25.9068 25.1797 27.2014L30.8417 36.0988L39.0952 18.6752C39.815 17.1549 41.9601 17.1066 42.7539 18.5809L49.8289 31.7201H67.0402C79.7899 11.7934 54.5922 -10.9071 35.4801 5.8089Z" fill="black"/>
<path d="M35.4801 5.8089C20.2222 -7.5363 0.822065 4.18918 0.503945 20.0849C0.422877 24.136 1.59228 28.0821 3.92001 31.7201H19.0077L21.6913 27.2472C22.4705 25.9486 24.3563 25.9068 25.1797 27.2014L30.8417 36.0988L39.0952 18.6752C39.815 17.1549 41.9601 17.1066 42.7539 18.5809L49.8289 31.7201H67.0402C79.7899 11.7934 54.5922 -10.9071 35.4801 5.8089Z" fill="url(#paint0_linear_175_5279)"/>
<path d="M46.7987 34.7427L41.0657 24.0957L32.9587 41.2102C32.2691 42.6663 30.2404 42.7928 29.3755 41.4333L23.5011 32.2024L21.9272 34.8255C21.5566 35.4432 20.8892 35.821 20.1689 35.821H7.16406C7.57173 36.2477 5.39902 34.0794 34.0338 62.5658C34.8336 63.3616 36.1264 63.3618 36.9263 62.5658C65.1205 34.5177 63.3892 36.2469 63.7961 35.821H48.6042C47.8497 35.8212 47.1563 35.407 46.7987 34.7427Z" fill="black"/>
<path d="M46.7987 34.7427L41.0657 24.0957L32.9587 41.2102C32.2691 42.6663 30.2404 42.7928 29.3755 41.4333L23.5011 32.2024L21.9272 34.8255C21.5566 35.4432 20.8892 35.821 20.1689 35.821H7.16406C7.57173 36.2477 5.39902 34.0794 34.0338 62.5658C34.8336 63.3616 36.1264 63.3618 36.9263 62.5658C65.1205 34.5177 63.3892 36.2469 63.7961 35.821H48.6042C47.8497 35.8212 47.1563 35.407 46.7987 34.7427Z" fill="url(#paint1_linear_175_5279)"/>
<defs>
<linearGradient id="paint0_linear_175_5279" x1="66.3502" y1="-0.546951" x2="53.4835" y2="38.683" gradientUnits="userSpaceOnUse">
<stop stop-color="#FC502B"/>
<stop offset="1" stop-color="#FF9431"/>
</linearGradient>
<linearGradient id="paint1_linear_175_5279" x1="60.4387" y1="23.5038" x2="43.1384" y2="62.9361" gradientUnits="userSpaceOnUse">
<stop stop-color="#FC502B"/>
<stop offset="1" stop-color="#FF9431"/>
</linearGradient>
</defs>
</svg>
