<svg width="71" height="70" viewBox="0 0 71 70" fill="none" xmlns="http://www.w3.org/2000/svg">
<path d="M68.4492 41.1524H65.7363L58.7643 24.0642C60.769 23.049 62.1602 20.9906 62.1602 18.5938C62.1602 17.4602 61.2429 16.543 60.1094 16.543C58.9758 16.543 58.0586 17.4602 58.0586 18.5938C58.0586 19.7253 57.1393 20.6446 56.0078 20.6446C54.9403 20.6446 54.4156 20.252 53.3281 19.3649C51.8702 18.1751 49.8715 16.543 45.7539 16.543C42.9596 16.543 41.0906 17.306 39.8226 18.3257C39.1877 17.6973 38.4087 17.2267 37.5508 16.9208V16.1652C39.9327 15.3158 41.6523 13.0608 41.6523 10.3907C41.6523 7.76908 38.5301 2.77679 37.1883 0.832104C36.4193 -0.277368 34.5808 -0.277368 33.8118 0.832104C32.4699 2.77679 29.3477 7.76908 29.3477 10.3907C29.3477 13.0608 31.0673 15.3158 33.4492 16.1652V16.9208C32.5913 17.2267 31.8123 17.6973 31.1774 18.3257C29.9094 17.306 28.0404 16.543 25.2461 16.543C21.1285 16.543 19.1298 18.1751 17.6719 19.3649C16.5844 20.252 16.0597 20.6446 14.9922 20.6446C13.8607 20.6446 12.9414 19.7253 12.9414 18.5938C12.9414 17.4602 12.0242 16.543 10.8906 16.543C9.75709 16.543 8.83984 17.4602 8.83984 18.5938C8.83984 20.9906 10.231 23.049 12.2357 24.0642L5.26369 41.1524H2.55078C1.41725 41.1524 0.5 42.0696 0.5 43.2032C0.5 48.8569 5.10018 53.4571 10.7539 53.4571H19.0938C24.7475 53.4571 29.3477 48.8569 29.3477 43.2032C29.3477 42.0696 28.4304 41.1524 27.2969 41.1524H24.584L17.7822 24.1478C18.7883 23.7038 19.5874 23.0966 20.2653 22.5432C21.513 21.5238 22.5905 20.6446 25.2461 20.6446C28.9912 20.6446 29.3217 22.3749 29.3477 22.7454C29.3479 22.7599 29.3561 22.7716 29.357 22.7861C29.3961 25.4159 31.0951 27.6305 33.4492 28.4698V58.073C31.0673 58.9224 29.3477 61.1774 29.3477 63.8476C29.3477 64.979 28.4284 65.8983 27.2969 65.8983H23.1953C22.0618 65.8983 21.1445 66.8156 21.1445 67.9491C21.1445 69.0826 22.0618 69.9999 23.1953 69.9999H47.8047C48.9382 69.9999 49.8555 69.0826 49.8555 67.9491C49.8555 66.8156 48.9382 65.8983 47.8047 65.8983H43.7031C42.5716 65.8983 41.6523 64.979 41.6523 63.8476C41.6523 61.1774 39.9327 58.9224 37.5508 58.073V28.4699C39.9079 27.6293 41.6087 25.4106 41.6441 22.7764C41.6447 22.7682 41.6499 22.7617 41.6504 22.7535C41.6744 22.4029 41.9788 20.6446 45.7539 20.6446C48.4095 20.6446 49.487 21.5238 50.7347 22.5432C51.4126 23.0966 52.2117 23.7038 53.2178 24.1478L46.416 41.1524H43.7031C42.5696 41.1524 41.6523 42.0696 41.6523 43.2032C41.6523 48.8569 46.2525 53.4571 51.9062 53.4571H60.2461C65.8998 53.4571 70.5 48.8569 70.5 43.2032C70.5 42.0696 69.5828 41.1524 68.4492 41.1524ZM9.68176 41.1524L14.9922 28.2178L20.1659 41.1524H9.68176ZM50.8341 41.1524L56.0078 28.2178L61.3182 41.1524H50.8341Z" fill="url(#paint0_linear_175_5291)"/>
<defs>
<linearGradient id="paint0_linear_175_5291" x1="66.3502" y1="-1.0606" x2="28.1972" y2="58.929" gradientUnits="userSpaceOnUse">
<stop stop-color="#FC502B"/>
<stop offset="1" stop-color="#FF9431"/>
</linearGradient>
</defs>
</svg>
