<svg width="18" height="21" viewBox="0 0 18 21" fill="none" xmlns="http://www.w3.org/2000/svg">
<path d="M16.2566 13.2741C16.2886 13.1035 16.3616 12.977 16.4934 12.8639L17.5032 11.9973C17.9512 11.6129 18.1142 11.0045 17.9185 10.4475L17.4773 9.192C17.4197 9.02828 17.4197 8.88218 17.4773 8.71842L17.9185 7.46293C18.1142 6.90596 17.9512 6.29765 17.5032 5.91315L16.4934 5.04654C16.3616 4.93341 16.2886 4.8069 16.2566 4.63632L16.0109 3.32843C15.9019 2.74818 15.4566 2.30287 14.8764 2.1939L13.5686 1.94825C13.3979 1.91617 13.2714 1.84312 13.1584 1.71144L12.2917 0.701562C11.9072 0.25352 11.2988 0.0905033 10.7419 0.286265L9.48639 0.727457C9.48639 0.727457 9.48639 0.727502 9.48635 0.727502C9.32267 0.785081 9.17657 0.785169 9.01276 0.727457L7.75728 0.286265C7.20031 0.0905916 6.59204 0.253564 6.20749 0.701562L5.34084 1.71139C5.22776 1.84312 5.10124 1.91621 4.93063 1.9482L3.62278 2.1939C3.04257 2.30287 2.59722 2.74818 2.48825 3.32839L2.2426 4.63624C2.21051 4.80685 2.13751 4.93341 2.00578 5.04645L0.995952 5.91306C0.547955 6.29756 0.384938 6.90588 0.580699 7.46285L1.02189 8.71837C1.07947 8.8821 1.07947 9.02819 1.02189 9.19195L0.580699 10.4474C0.384938 11.0044 0.547955 11.6128 0.995952 11.9972L2.00574 12.8638C2.13751 12.977 2.21056 13.1035 2.2426 13.274L2.48825 14.5819C2.50813 14.6877 2.53946 14.7889 2.58047 14.8846L0.588963 18.334C0.523915 18.4467 0.525992 18.5859 0.594398 18.6966C0.662804 18.8073 0.786404 18.8718 0.916234 18.8636L2.99347 18.7396L3.92464 20.6005C3.98284 20.7168 4.10025 20.7918 4.23026 20.7957C4.23379 20.7958 4.23733 20.7958 4.24086 20.7958C4.36685 20.7958 4.48373 20.7286 4.54697 20.6191L6.406 17.3992C6.65753 17.5989 6.96553 17.7057 7.28193 17.7057C7.44039 17.7056 7.60094 17.679 7.75737 17.624L9.01289 17.1828C9.17666 17.1253 9.32275 17.1252 9.48648 17.1828L10.742 17.6239C11.2108 17.7887 11.7156 17.6984 12.0931 17.3987L13.9524 20.6191C14.0157 20.7286 14.1325 20.7958 14.2585 20.7958C14.262 20.7958 14.2656 20.7958 14.2691 20.7957C14.3991 20.7918 14.5165 20.7168 14.5747 20.6005L15.5059 18.7396L17.5831 18.8636C17.713 18.8716 17.8366 18.8072 17.9049 18.6966C17.9733 18.5859 17.9754 18.4467 17.9104 18.334L15.9189 14.8846C15.9599 14.789 15.9912 14.6878 16.0111 14.582L16.2566 13.2741ZM4.263 19.6968L3.52136 18.2146C3.45808 18.0881 3.32582 18.0118 3.18415 18.02L1.52972 18.1187L3.056 15.4752C3.22105 15.5931 3.41292 15.6771 3.62282 15.7165L4.93071 15.9622C5.10138 15.9942 5.22789 16.0673 5.34093 16.1989L5.90387 16.8549L4.263 19.6968ZM15.315 18.02C15.1732 18.011 15.0411 18.0881 14.9778 18.2146L14.2362 19.6968L12.5954 16.8549L13.1584 16.199C13.2714 16.0672 13.398 15.9942 13.5686 15.9622L14.8764 15.7165C15.0863 15.6771 15.2782 15.5931 15.4433 15.4752L16.9696 18.1188L15.315 18.02ZM15.5617 13.1436L15.316 14.4515C15.2604 14.7476 15.042 14.9661 14.7459 15.0216L13.438 15.2673C13.1123 15.3285 12.8377 15.487 12.6218 15.7385L11.7551 16.7484C11.5589 16.977 11.2605 17.0571 10.9763 16.9571L9.72077 16.5159C9.40808 16.406 9.09098 16.4061 8.77833 16.5159L7.5229 16.9571C7.23862 17.057 6.94021 16.977 6.74401 16.7484L5.87735 15.7385C5.66153 15.4871 5.38693 15.3285 5.06121 15.2673L3.75327 15.0216C3.4572 14.966 3.23877 14.7476 3.18313 14.4515L2.93753 13.1436C2.87637 12.818 2.71781 12.5433 2.46628 12.3274L1.45641 11.4607C1.22782 11.2646 1.14788 10.9661 1.24775 10.6819L1.68894 9.42647C1.79884 9.11378 1.79884 8.79663 1.68894 8.48399L1.24775 7.22851C1.14788 6.94428 1.22782 6.64586 1.45641 6.44966L2.46624 5.58305C2.71777 5.36718 2.87632 5.09254 2.93748 4.76677L3.18313 3.45888C3.23873 3.16285 3.45724 2.94438 3.75332 2.88879L5.06116 2.64309C5.38689 2.58193 5.66144 2.42342 5.8774 2.17189L6.74401 1.16202C6.8844 0.998518 7.07706 0.911022 7.27937 0.911022C7.35988 0.911022 7.44199 0.924854 7.52285 0.953312L8.77829 1.39446C9.09098 1.50441 9.40808 1.50436 9.72077 1.3945L10.9763 0.953312C11.2604 0.85331 11.5589 0.933383 11.7551 1.16202L12.6218 2.17185C12.8376 2.42334 13.1122 2.58189 13.4379 2.64309L14.7458 2.88874C15.0419 2.94438 15.2603 3.16281 15.316 3.45888L15.5616 4.76677C15.6228 5.09245 15.7813 5.36705 16.0329 5.58305L17.0427 6.4497C17.2713 6.64586 17.3513 6.94428 17.2514 7.22851L16.8102 8.48394C16.7003 8.79663 16.7003 9.11378 16.8102 9.42643L17.2514 10.6819C17.3513 10.9661 17.2713 11.2646 17.0427 11.4608L16.0328 12.3274C15.7814 12.5432 15.6229 12.8178 15.5617 13.1436ZM9.24958 3.03006C5.98248 3.03006 3.32445 5.68805 3.32445 8.95518C3.32445 12.2223 5.98244 14.8803 9.24958 14.8803C12.5167 14.8803 15.1747 12.2223 15.1747 8.95518C15.1747 5.68809 12.5167 3.03006 9.24958 3.03006ZM9.24958 14.1732C6.37232 14.1732 4.03149 11.8324 4.03149 8.95518C4.03149 6.07793 6.37232 3.7371 9.24958 3.7371C12.1268 3.7371 14.4677 6.07793 14.4677 8.95518C14.4677 11.8324 12.1268 14.1732 9.24958 14.1732ZM12.183 7.57208L10.8029 7.14574C10.7762 7.13748 10.7631 7.12802 10.747 7.10517L9.91499 5.92428C9.76041 5.70493 9.5179 5.57907 9.24958 5.57907C8.9813 5.57907 8.73874 5.70488 8.58416 5.92428L7.75211 7.10522C7.73607 7.12802 7.72299 7.13748 7.6963 7.14574L6.31611 7.57208C6.05977 7.65132 5.86516 7.8431 5.78225 8.09825C5.69935 8.35345 5.74403 8.62301 5.90488 8.83777L6.77083 9.99391C6.78758 10.0163 6.79261 10.0317 6.79217 10.0596L6.77118 11.504C6.76729 11.7723 6.88957 12.0167 7.10667 12.1744C7.32378 12.3321 7.59391 12.3729 7.84783 12.2862L9.21502 11.8199C9.24149 11.811 9.25762 11.811 9.28409 11.8199L10.6512 12.2862C10.7388 12.3161 10.8283 12.3309 10.917 12.3309C11.0852 12.3309 11.2502 12.2777 11.3925 12.1744C11.6096 12.0167 11.7319 11.7723 11.7279 11.504L11.7069 10.0597C11.7065 10.0317 11.7115 10.0163 11.7283 9.99396L12.5943 8.83773C12.7551 8.62296 12.7998 8.35341 12.7169 8.09825C12.634 7.8431 12.4394 7.65132 12.183 7.57208ZM12.0284 8.41395L11.1624 9.57018C11.052 9.71759 10.9974 9.88574 11 10.07L11.021 11.5144C11.0216 11.5538 11.0088 11.5793 10.977 11.6024C10.9451 11.6256 10.9169 11.6299 10.8796 11.6171L9.51237 11.1509C9.338 11.0914 9.1612 11.0914 8.98682 11.1509L7.61963 11.6171C7.58233 11.6299 7.5541 11.6256 7.52228 11.6025C7.49037 11.5793 7.4776 11.5537 7.47818 11.5144L7.49917 10.0699C7.50182 9.88574 7.4472 9.71759 7.33677 9.57013L6.47082 8.41395C6.44718 8.38239 6.4425 8.35425 6.45469 8.31682C6.46689 8.2793 6.48722 8.25924 6.52482 8.24766L7.90501 7.82131C8.08106 7.76696 8.2241 7.66298 8.33016 7.51243L9.16217 6.33158C9.18488 6.29937 9.2102 6.2862 9.24962 6.2862C9.28904 6.2862 9.31436 6.29937 9.33707 6.33154L10.1691 7.51247C10.2752 7.66303 10.4183 7.76696 10.5942 7.82131L11.9744 8.24766C12.012 8.25928 12.0323 8.27934 12.0445 8.31682C12.0567 8.35429 12.052 8.38239 12.0284 8.41395Z" fill="#8B94AB"/>
</svg>
