<svg width="18" height="19" viewBox="0 0 18 19" fill="none" xmlns="http://www.w3.org/2000/svg">
<path d="M15.3639 3.13607C13.6641 1.43615 11.404 0.5 9 0.5C6.59603 0.5 4.33591 1.43615 2.63607 3.13607C0.936149 4.83591 0 7.09603 0 9.5C0 11.904 0.936149 14.1641 2.63607 15.864C4.33591 17.5639 6.59603 18.5 9 18.5C11.404 18.5 13.6641 17.5639 15.3639 15.864C17.0639 14.1641 18 11.904 18 9.5C18 7.09603 17.0639 4.83591 15.3639 3.13607ZM9 17.305C4.69632 17.305 1.19502 13.8037 1.19502 9.5C1.19502 5.19632 4.69632 1.69502 9 1.69502C13.3037 1.69502 16.805 5.19632 16.805 9.5C16.805 13.8037 13.3037 17.305 9 17.305ZM11.6741 8.13644L7.90036 5.9577C7.40644 5.67254 6.81759 5.67216 6.32513 5.9565C5.83263 6.24084 5.53862 6.75104 5.53862 7.32129V11.6787C5.53862 12.249 5.83263 12.7592 6.32517 13.0435C6.57105 13.1855 6.84093 13.2565 7.11105 13.2565C7.38194 13.2565 7.6531 13.1851 7.90039 13.0423L11.6741 10.8636C11.6741 10.8636 11.6741 10.8636 11.6741 10.8636C12.168 10.5784 12.4628 10.0687 12.4628 9.49996C12.4628 8.93128 12.1679 8.42161 11.6741 8.13644ZM11.0765 9.82871L7.30288 12.0074C7.13035 12.107 6.97948 12.0414 6.92268 12.0086C6.86584 11.9758 6.73364 11.878 6.73364 11.6787V7.32129C6.73364 7.12202 6.86581 7.02422 6.92268 6.99139C6.95704 6.97156 7.02583 6.93971 7.11302 6.93971C7.16994 6.93971 7.23473 6.95326 7.30288 6.99262L11.0766 9.17137C11.2491 9.271 11.2677 9.43439 11.2677 9.5C11.2677 9.56561 11.2491 9.72903 11.0765 9.82871Z" fill="#8B94AB"/>
</svg>
