<svg width="21" height="20" viewBox="0 0 21 20" fill="none" xmlns="http://www.w3.org/2000/svg">
<path d="M18.1667 13.6833V16.63C18.1668 16.841 18.0869 17.0442 17.9431 17.1985C17.7992 17.3528 17.6022 17.4469 17.3917 17.4617C17.0276 17.4867 16.7301 17.5 16.5001 17.5C9.13591 17.5 3.16675 11.5308 3.16675 4.16667C3.16675 3.93667 3.17925 3.63917 3.20508 3.275C3.21985 3.06453 3.3139 2.86751 3.46825 2.72368C3.62261 2.57984 3.82576 2.49991 4.03675 2.5H6.98341C7.08678 2.49989 7.1865 2.53822 7.26319 2.60752C7.33988 2.67682 7.38808 2.77215 7.39841 2.875C7.41758 3.06667 7.43508 3.21917 7.45175 3.335C7.61736 4.49077 7.95675 5.61486 8.45842 6.66917C8.53758 6.83583 8.48591 7.035 8.33591 7.14167L6.53758 8.42667C7.63712 10.9888 9.67883 13.0304 12.2409 14.13L13.5242 12.335C13.5767 12.2617 13.6532 12.2091 13.7405 12.1864C13.8277 12.1637 13.9202 12.1723 14.0017 12.2108C15.0559 12.7116 16.1797 13.0502 17.3351 13.215C17.4509 13.2317 17.6034 13.2492 17.7934 13.2683C17.8961 13.2788 17.9912 13.3272 18.0604 13.4038C18.1295 13.4805 18.1669 13.5801 18.1667 13.6833Z" fill="#283891"/>
</svg>
