<svg width="50" height="60" viewBox="0 0 50 60" fill="none" xmlns="http://www.w3.org/2000/svg">
<path d="M6.88969 10.3793C7.46886 10.7053 11.3674 12.5887 13.2508 13.4956C13.2581 14.2266 13.2743 15.4908 13.2991 15.5122C13.5067 17.3225 13.8631 19.3335 13.9663 19.9014C13.795 19.9964 12.9149 20.5719 12.9149 22.3621C12.9157 22.3722 12.9166 22.3815 12.9173 22.3917C12.916 22.4387 12.9149 22.486 12.9149 22.5346C13.2937 27.5104 15.2726 25.366 15.6806 27.5454C16.3594 31.1692 19.568 33.791 21.5652 34.6961C22.7196 35.219 23.9075 35.4857 25.156 35.5113C26.4045 35.4859 27.5925 35.219 28.7468 34.6961C30.7441 33.791 33.9527 31.1691 34.6315 27.5454C35.0395 25.3658 37.0184 27.5104 37.3973 22.5346C37.3973 22.4859 37.396 22.4387 37.3947 22.3917C37.3955 22.3816 37.3964 22.3723 37.3973 22.3621C37.3973 20.5718 36.5169 19.9964 36.3458 19.9014C36.4492 19.3335 36.8055 17.3226 37.0129 15.5122C37.0376 15.4908 37.0539 14.2268 37.0613 13.4956C38.0958 12.9974 39.7376 12.2049 41.1039 11.5376V16.3475C40.7244 16.5715 40.4576 16.9669 40.4576 17.4383C40.4576 17.8557 40.6694 18.2093 40.9782 18.443C40.9782 18.443 40.4293 21.5284 40.2518 22.4358C40.0744 23.343 43.3819 23.161 43.233 22.4358C43.0843 21.7104 42.5071 18.443 42.5071 18.443C42.8159 18.2093 43.0277 17.8557 43.0277 17.4383C43.0277 16.9668 42.762 16.5716 42.3828 16.3475V10.9091C42.892 10.6565 43.2709 10.4645 43.4223 10.3793C43.8321 10.1487 44.0528 9.85372 44.0062 9.54719C44.0622 9.2276 43.8311 8.88407 43.2109 8.58039C38.7846 6.41373 27.5002 0.891395 26.3844 0.359171C25.8975 0.12701 25.4968 0.0244448 25.156 0C24.8152 0.0244448 24.4146 0.12701 23.9277 0.359171C22.8119 0.891395 11.5275 6.41385 7.10129 8.58039C6.48085 8.88407 6.24986 9.2276 6.30599 9.54719C6.25917 9.85372 6.47995 10.1487 6.88969 10.3793Z" fill="url(#paint0_linear_109_1260)"/>
<path d="M40.179 41.5025C38.0965 40.7517 34.472 38.5871 33.8509 38.2532C33.69 38.1597 33.5035 38.1051 33.3039 38.1051C32.8682 38.1051 32.4931 38.3608 32.3185 38.7308C30.6015 41.6051 27.4184 49.9633 25.1974 50.1184C25.1839 50.1173 25.1699 50.1146 25.1562 50.1131C25.1425 50.1146 25.1285 50.1173 25.1149 50.1184C22.8939 49.9633 19.7108 41.6051 17.9938 38.7308C17.8191 38.3608 17.4442 38.1051 17.0084 38.1051C16.8087 38.1051 16.6223 38.1597 16.4613 38.2532C15.8404 38.5871 12.2157 40.7517 10.1333 41.5025C3.14368 44.0228 0 46.5931 0 48.3458C0 48.3966 0 48.4547 0 48.5183C0 50.6529 0 59.8275 0 59.8275C0 59.9392 0 60 0 60H25.1149H25.1562H25.1974H50.3123C50.3123 60 50.3123 59.9392 50.3123 59.8275C50.3123 59.8275 50.3123 50.6527 50.3123 48.5183C50.3123 48.4547 50.3123 48.3966 50.3123 48.3458C50.3122 46.5931 47.1687 44.0228 40.179 41.5025Z" fill="url(#paint1_linear_109_1260)"/>
<defs>
<linearGradient id="paint0_linear_109_1260" x1="16.2508" y1="6.61725" x2="42.5068" y2="17.8063" gradientUnits="userSpaceOnUse">
<stop stop-color="#283891"/>
<stop offset="1" stop-color="#001482"/>
</linearGradient>
<linearGradient id="paint1_linear_109_1260" x1="13.2769" y1="42.185" x2="35.6461" y2="62.8096" gradientUnits="userSpaceOnUse">
<stop stop-color="#283891"/>
<stop offset="1" stop-color="#001482"/>
</linearGradient>
</defs>
</svg>
