<svg width="59" height="67" viewBox="0 0 59 67" fill="none" xmlns="http://www.w3.org/2000/svg">
<g clip-path="url(#clip0_109_1248)">
<path d="M45.8159 57.5713H5.02733C2.23996 57.5713 -0.175766 59.8012 0.0100589 62.6815C0.102971 63.8893 0.567534 65.0043 1.40375 65.7476C2.33287 66.6767 3.54073 67.1413 4.84151 67.1413H45.8159C46.3734 67.1413 46.745 66.6767 46.745 66.2121V58.5004C46.745 58.0359 46.3734 57.5713 45.8159 57.5713Z" fill="url(#paint0_linear_109_1248)"/>
<path d="M41.2635 41.6832C40.8919 41.6832 40.5202 41.5903 40.2415 41.4973L29.2778 36.6659V43.8202C29.2778 44.0989 29.3707 44.3776 29.6495 44.5635C29.9282 44.7493 34.1093 47.7225 40.799 47.7225C44.2367 47.7225 48.232 46.9792 52.6918 44.6564C52.9705 44.4705 53.1563 44.1918 53.1563 43.8202V36.6659L42.2856 41.4044C42.0068 41.6832 41.6352 41.6832 41.2635 41.6832Z" fill="url(#paint1_linear_109_1248)"/>
<path d="M59.474 43.8201V46.7933C59.474 47.3507 59.0094 47.7224 58.5449 47.7224H55.3859C54.9213 47.7224 54.4567 47.3507 54.4567 46.7933V43.8201C54.4567 42.798 55.1071 41.9618 56.0362 41.6831V33.4139L41.6348 39.7319C41.5419 39.7319 41.3561 39.8248 41.2632 39.8248C41.1703 39.8248 40.9844 39.8248 40.8915 39.7319L25.1893 32.8564C24.8177 32.7635 24.6318 32.3918 24.6318 32.0202C24.6318 31.6485 24.8177 31.2769 25.1893 31.184L40.8915 24.3085C41.1703 24.2155 41.3561 24.2155 41.6348 24.3085L57.337 31.184C57.7087 31.3698 57.8945 31.7415 57.8945 32.0202V41.6831C58.8236 41.9618 59.474 42.798 59.474 43.8201Z" fill="url(#paint2_linear_109_1248)"/>
<path d="M6.0494 10.1858V55.4342H5.12027C3.26202 55.4342 1.40377 56.1775 0.102998 57.5711V17.7117C0.010086 14.0881 2.61163 10.9291 6.0494 10.1858Z" fill="url(#paint3_linear_109_1248)"/>
<path d="M22.7737 32.0203C22.7737 33.1352 23.4241 34.1572 24.4461 34.5289L27.4193 35.8297V43.8201C27.4193 44.7493 27.8839 45.5855 28.5343 46.05C28.813 46.2359 33.3657 49.5807 40.7987 49.5807C42.7499 49.5807 44.794 49.302 46.7451 48.8374V55.5271C46.4664 55.4342 46.0947 55.3413 45.816 55.3413H7.90771V10H45.9089C46.1877 10 46.3735 10.0929 46.5593 10.2787C46.7451 10.4646 46.838 10.6504 46.838 10.9291V24.4943L42.4712 22.5432C42.0995 22.3574 41.7279 22.3574 41.3562 22.3574C40.9846 22.3574 40.6129 22.4503 40.2413 22.6361L24.539 29.5116C23.517 29.8833 22.7737 30.9053 22.7737 32.0203Z" fill="url(#paint4_linear_109_1248)"/>
</g>
<defs>
<linearGradient id="paint0_linear_109_1248" x1="-4.33325e-07" y1="58.3369" x2="44.0333" y2="71.7241" gradientUnits="userSpaceOnUse">
<stop stop-color="#283891"/>
<stop offset="1" stop-color="#001482"/>
</linearGradient>
<linearGradient id="paint1_linear_109_1248" x1="29.2778" y1="37.5504" x2="53.4141" y2="40.7949" gradientUnits="userSpaceOnUse">
<stop stop-color="#283891"/>
<stop offset="1" stop-color="#001482"/>
</linearGradient>
<linearGradient id="paint2_linear_109_1248" x1="24.6318" y1="26.1175" x2="60.1833" y2="29.4005" gradientUnits="userSpaceOnUse">
<stop stop-color="#283891"/>
<stop offset="1" stop-color="#001482"/>
</linearGradient>
<linearGradient id="paint3_linear_109_1248" x1="0.100586" y1="13.9766" x2="6.22188" y2="14.0245" gradientUnits="userSpaceOnUse">
<stop stop-color="#283891"/>
<stop offset="1" stop-color="#001482"/>
</linearGradient>
<linearGradient id="paint4_linear_109_1248" x1="7.90771" y1="13.6422" x2="47.8561" y2="15.7684" gradientUnits="userSpaceOnUse">
<stop stop-color="#283891"/>
<stop offset="1" stop-color="#001482"/>
</linearGradient>
<clipPath id="clip0_109_1248">
<rect width="59" height="67" fill="white"/>
</clipPath>
</defs>
</svg>
