<svg width="66" height="71" viewBox="0 0 66 71" fill="none" xmlns="http://www.w3.org/2000/svg">
<g clip-path="url(#clip0_109_1264)">
<path d="M65.7127 33.5184L56.3008 30.6271V23.6159C56.3008 23.2171 56.076 22.8538 55.7183 22.6785L30.3016 10.1008C30.2988 10.0994 30.2931 10.0994 30.2818 10.0994C30.2338 10.0739 30.0443 9.98634 29.7686 10.0018C29.4816 10.0174 29.2724 10.1559 29.2327 10.1871L11.1058 23.1125C10.8301 23.3089 10.6661 23.6257 10.6661 23.9637V32.9882L7.29828 32.5866C7.29689 32.5866 7.28696 32.588 7.26859 32.5909C7.22482 32.588 7.12294 32.5837 7.02683 32.5965C6.9052 32.6121 6.80066 32.6518 6.76104 32.6672C6.75538 32.6686 6.75122 32.67 6.75122 32.67L0.622138 35.3847C0.243264 35.5515 0 35.9276 0 36.3405V53.8254C0 54.2085 0.209304 54.5606 0.542898 54.7416L6.68608 58.1094C6.68608 58.1094 6.84733 58.2027 7.04092 58.2268C7.2135 58.2493 7.33929 58.2268 7.33929 58.2268L10.6646 57.7431V59.6703C10.6646 60.0534 10.8739 60.4041 11.2075 60.5878L29.3316 70.52C29.3316 70.52 29.5338 70.6374 29.7982 70.6501C30.0003 70.66 30.1983 70.5865 30.1983 70.5865V70.5808C30.2011 70.5808 30.204 70.5808 30.204 70.5808L55.6221 60.9172L65.7735 57.0573C66.1793 56.9032 66.4479 56.5145 66.4479 56.0805V34.5193C66.4521 34.0586 66.1523 33.6527 65.7127 33.5184ZM2.91675 49.4793C2.91675 49.5881 2.86581 49.6914 2.77814 49.7563C2.71588 49.8029 2.64241 49.8284 2.56745 49.8284C2.53626 49.8284 2.50519 49.8242 2.47411 49.8158L1.31058 49.4919C1.15926 49.4495 1.05472 49.3124 1.05472 49.1554V45.9121C1.05472 45.8145 1.09573 45.7198 1.16919 45.6534C1.24139 45.5869 1.33888 45.5558 1.43637 45.5657L2.5999 45.6788C2.77802 45.6971 2.91513 45.8456 2.91513 46.0252V49.4792H2.91675V49.4793ZM2.91675 42.5726C2.91675 42.755 2.77675 42.9049 2.59575 42.9204L1.43221 43.0166C1.42366 43.0166 1.41384 43.0166 1.40391 43.0166C1.31762 43.0166 1.23284 42.9854 1.16781 42.9262C1.09573 42.8596 1.05472 42.7678 1.05472 42.6687V39.4254C1.05472 39.267 1.16215 39.1285 1.31485 39.0889L2.4785 38.7821C2.58315 38.7553 2.69335 38.7778 2.77964 38.8444C2.86592 38.9094 2.91536 39.0112 2.91536 39.1187V42.5727H2.91675V42.5726ZM6.31852 50.4251C6.31852 50.5339 6.2677 50.6357 6.1813 50.7021C6.11904 50.7487 6.04557 50.7728 5.97061 50.7728C5.93953 50.7728 5.90835 50.7685 5.87727 50.7601L4.28242 50.3162C4.13111 50.2752 4.02657 50.1365 4.02657 49.9811V46.2018C4.02657 46.1043 4.06746 46.0096 4.14104 45.9432C4.21312 45.8768 4.31072 45.8456 4.40972 45.8555L6.00457 46.011C6.18419 46.028 6.31979 46.1778 6.31979 46.3574V50.4251H6.31852ZM6.31852 42.2926C6.31852 42.4736 6.17852 42.6249 5.99902 42.6405L4.40279 42.772C4.39297 42.772 4.38442 42.772 4.37449 42.772C4.28681 42.772 4.20203 42.7395 4.13838 42.6801C4.06619 42.6137 4.0253 42.5218 4.0253 42.4228V38.645C4.0253 38.4866 4.13284 38.3481 4.28543 38.3071L5.88166 37.8886C5.98632 37.8603 6.09651 37.883 6.1828 37.9494C6.2677 38.0158 6.31852 38.1176 6.31852 38.2251V42.2926ZM15.049 52.8485C15.049 52.9573 14.9981 53.0606 14.9118 53.1255C14.851 53.1721 14.7761 53.1976 14.7011 53.1976C14.6686 53.1976 14.6375 53.1934 14.6078 53.1849L12.5506 52.6138C12.3993 52.5714 12.2947 52.4342 12.2947 52.2787V47.0092C12.2947 46.9103 12.3357 46.8169 12.4093 46.7505C12.4813 46.6841 12.5789 46.653 12.6764 46.66L14.7336 46.8623C14.9131 46.8792 15.0488 47.0291 15.0488 47.2086V52.8485H15.049ZM15.049 41.5716C15.049 41.7526 14.9104 41.9039 14.7295 41.918L12.6723 42.0877C12.6638 42.0892 12.6539 42.0892 12.644 42.0892C12.5563 42.0892 12.4715 42.0566 12.4079 41.9972C12.3357 41.9308 12.2948 41.8375 12.2948 41.7399V36.4705C12.2948 36.3122 12.4022 36.1737 12.5549 36.134L14.612 35.5925C14.7167 35.5657 14.8284 35.5883 14.9132 35.6548C14.998 35.7198 15.0489 35.8216 15.0489 35.9291V41.5716H15.049ZM15.049 30.292C15.049 30.4305 14.9684 30.5564 14.8426 30.6115L12.7855 31.5219C12.7402 31.5418 12.6921 31.5531 12.6441 31.5531C12.5777 31.5531 12.5113 31.5334 12.4533 31.4965C12.3543 31.4315 12.2949 31.3212 12.2949 31.2038V25.9345C12.2949 25.8142 12.3572 25.7025 12.4589 25.6389L14.5161 24.358C14.6236 24.2902 14.7592 24.2873 14.8695 24.3482C14.9798 24.4104 15.0491 24.5263 15.0491 24.6536L15.049 30.292ZM20.1742 54.2722C20.1742 54.381 20.1233 54.4842 20.037 54.5493C19.9762 54.5958 19.9013 54.6213 19.8263 54.6213C19.7952 54.6213 19.764 54.6171 19.733 54.6086L16.9773 53.8423C16.826 53.8013 16.7215 53.6627 16.7215 53.5072V47.4405C16.7215 47.3429 16.7625 47.2482 16.836 47.1818C16.9082 47.1169 17.0056 47.0857 17.1031 47.0941L19.8601 47.3627C20.0382 47.381 20.174 47.5295 20.174 47.7091V54.2722H20.1742ZM20.1742 41.1474C20.1742 41.3298 20.0356 41.4797 19.8546 41.4952L17.0991 41.7229C17.0892 41.7229 17.0793 41.7244 17.0694 41.7244C16.9817 41.7244 16.8983 41.6904 16.8333 41.6311C16.7612 41.5646 16.7202 41.4727 16.7202 41.3737V35.3083C16.7202 35.1499 16.8276 35.0114 16.9803 34.9718L19.7358 34.2465C19.8405 34.2182 19.9522 34.2408 20.037 34.3072C20.1233 34.3737 20.1727 34.4754 20.1727 34.583V41.1474H20.1742ZM20.1742 28.0228C20.1742 28.1614 20.0936 28.2872 19.9678 28.3424L17.2122 29.5625C17.1669 29.5838 17.1188 29.5922 17.0708 29.5922C17.0044 29.5922 16.938 29.5725 16.8814 29.5358C16.7825 29.4721 16.723 29.3618 16.723 29.243V23.1776C16.723 23.0574 16.7852 22.9458 16.887 22.8821L19.6425 21.1643C19.7499 21.0965 19.8857 21.0936 19.996 21.1543C20.1063 21.2166 20.1756 21.3324 20.1756 21.4597V28.0228H20.1742ZM27.3056 56.253C27.3056 56.3563 27.266 56.4552 27.1925 56.5259C27.0652 56.6544 26.8941 56.6544 26.8348 56.6544C26.8348 56.6544 26.8348 56.6544 26.8334 56.6544C26.1462 56.6544 23.4798 55.6944 22.9537 55.5036C22.8152 55.4541 22.7247 55.3227 22.7247 55.1756V48.0271C22.7247 47.9296 22.7657 47.8349 22.8378 47.7685C22.9112 47.702 23.0088 47.6709 23.1064 47.6808L26.9902 48.0597C27.1683 48.078 27.3055 48.2278 27.3055 48.406C27.3056 48.4824 27.3028 55.9178 27.3056 56.253ZM27.3056 40.5592C27.3056 40.7401 27.1657 40.8916 26.9847 40.9057L23.1008 41.2265C23.091 41.2265 23.081 41.228 23.0725 41.228C22.9848 41.228 22.9 41.1941 22.8364 41.1346C22.7642 41.0682 22.7233 40.9763 22.7233 40.8772V33.7289C22.7233 33.5719 22.8293 33.432 22.9834 33.3924L26.8672 32.3716C26.9719 32.3433 27.0822 32.366 27.1683 32.4324C27.2545 32.4988 27.3041 32.6007 27.3041 32.7081V40.5591H27.3056V40.5592ZM27.3056 24.8643C27.3056 25.0028 27.2236 25.1272 27.0978 25.1824L23.214 26.903C23.1687 26.9243 23.1206 26.9327 23.0726 26.9327C23.0062 26.9327 22.9397 26.913 22.8818 26.8762C22.7828 26.8112 22.7234 26.7023 22.7234 26.5835V19.4365C22.7234 19.3149 22.7857 19.2031 22.8874 19.1396L26.7713 16.7206C26.8788 16.6528 27.0145 16.6499 27.1248 16.7107C27.2351 16.7729 27.3043 16.8888 27.3043 17.0161V24.8643H27.3056ZM42.7448 20.9522C42.7448 20.8348 42.8043 20.726 42.9018 20.661C42.9992 20.596 43.1237 20.586 43.2312 20.6313L47.3766 22.424C47.5039 22.4792 47.5872 22.605 47.5872 22.7449V28.9361C47.5872 29.0464 47.535 29.151 47.4458 29.216C47.3851 29.2613 47.313 29.2853 47.2394 29.2853C47.2054 29.2853 47.1701 29.2797 47.1376 29.2697L42.9922 27.9959C42.8452 27.9506 42.7462 27.815 42.7462 27.6637V20.9522H42.7448ZM42.7448 34.371C42.7448 34.2677 42.7901 34.1689 42.8692 34.1038C42.9484 34.0374 43.0545 34.0105 43.1548 34.0289L47.3017 34.7838C47.4671 34.815 47.5872 34.9578 47.5872 35.126V41.3751C47.5872 41.4712 47.5476 41.5646 47.4755 41.6311C47.4106 41.6918 47.3257 41.7244 47.238 41.7244C47.2295 41.7244 47.221 41.7229 47.2139 41.7229L43.0686 41.4274C42.8862 41.4147 42.7447 41.2634 42.7447 41.081V34.371H42.7448ZM31.9529 16.2865C31.9529 16.1691 32.0123 16.0603 32.1099 15.9953C32.2074 15.9317 32.3318 15.9203 32.4393 15.967L38.328 18.5133C38.4553 18.5685 38.5386 18.6943 38.5386 18.8343V26.1566C38.5386 26.2669 38.4864 26.3716 38.3972 26.4366C38.3364 26.4819 38.2629 26.5059 38.1908 26.5059C38.1568 26.5059 38.1215 26.5003 38.0875 26.4903L32.1989 24.6806C32.0519 24.6369 31.9529 24.501 31.9529 24.3484V16.2865ZM31.9529 40.4631V32.4042C31.9529 32.301 31.9982 32.2021 32.0773 32.137C32.1565 32.0706 32.2611 32.0437 32.363 32.0621L38.2515 33.1353C38.417 33.1664 38.5385 33.3106 38.5385 33.4788V40.801C38.5385 40.8972 38.4989 40.9891 38.4283 41.0555C38.3632 41.1162 38.277 41.1502 38.1894 41.1502C38.1822 41.1502 38.1752 41.1502 38.1695 41.1488L32.2809 40.8123C32.0972 40.7996 31.9529 40.6484 31.9529 40.4631ZM43.4418 64.565C43.4418 64.7107 43.3513 64.8379 43.2171 64.8902L35.5101 67.8196C35.4705 67.8351 35.4281 67.8422 35.3872 67.8422C35.3178 67.8422 35.2472 67.8209 35.1893 67.7814C35.0945 67.7164 35.0393 67.609 35.0393 67.4945V48.3115C35.0393 48.1276 35.1808 47.9764 35.3645 47.9636L43.0714 47.4418C43.1689 47.4348 43.2623 47.4701 43.333 47.5352C43.4037 47.6002 43.4433 47.6921 43.4433 47.7897V64.565H43.4418ZM52.7294 61.0331C52.7294 61.1787 52.6403 61.3074 52.5046 61.3582L47.3623 63.3136C47.3214 63.3292 47.2804 63.3376 47.238 63.3376C47.1686 63.3376 47.0994 63.3151 47.04 63.2755C46.9467 63.2104 46.8901 63.103 46.8901 62.9885V47.5097C46.8901 47.3259 47.0316 47.1747 47.2153 47.1619L52.3574 46.814C52.455 46.807 52.5482 46.8409 52.6191 46.9059C52.6897 46.971 52.7294 47.0643 52.7294 47.1604V61.0331ZM54.2153 41.6975C54.2153 41.7936 54.1757 41.8855 54.105 41.9519C54.0399 42.0127 53.9537 42.0467 53.8661 42.0467C53.8589 42.0467 53.852 42.0467 53.8462 42.0467L50.7697 41.8699C50.586 41.8586 50.4417 41.7073 50.4417 41.5221V35.7735C50.4417 35.6703 50.4883 35.5714 50.5661 35.5049C50.6467 35.4384 50.7514 35.4129 50.853 35.4299L53.9281 35.9912C54.0937 36.0208 54.2152 36.165 54.2152 36.3333V41.6975H54.2153ZM54.2153 30.972C54.2153 31.0823 54.163 31.187 54.0738 31.252C54.013 31.2973 53.9396 31.3213 53.8674 31.3213C53.8335 31.3213 53.7981 31.3156 53.7641 31.3043L50.689 30.3599C50.5421 30.3146 50.4431 30.1789 50.4431 30.0277V24.279C50.4431 24.1616 50.5024 24.0528 50.5999 23.9878C50.6974 23.9228 50.8219 23.9128 50.9294 23.9595L54.006 25.2886C54.1333 25.3438 54.2166 25.4694 54.2166 25.6094V30.9721H54.2153V30.972ZM60.3626 51.2394C60.3626 51.4062 60.244 51.5505 60.08 51.5816L57.8446 52.0128C57.822 52.017 57.8007 52.0184 57.7796 52.0184C57.6991 52.0184 57.6198 51.9902 57.5576 51.9379C57.4771 51.8729 57.4318 51.7739 57.4318 51.6707V46.7973C57.4318 46.6135 57.5732 46.4623 57.7569 46.4495L59.9923 46.2981C60.0884 46.2925 60.1831 46.3263 60.2538 46.3915C60.3245 46.4564 60.3641 46.5483 60.3641 46.6459V51.2395H60.3626V51.2394ZM60.3626 42.0508C60.3626 42.1455 60.3231 42.2375 60.2524 42.3039C60.1874 42.3647 60.1025 42.3985 60.0136 42.3985C60.0064 42.3985 60.0008 42.3985 59.9937 42.3985L57.7583 42.2699C57.5746 42.2586 57.4304 42.1074 57.4304 41.9221V37.0488C57.4304 36.9456 57.4757 36.848 57.5547 36.7816C57.6339 36.7152 57.7386 36.6883 57.8403 36.7052L60.0743 37.1124C60.2397 37.1421 60.3612 37.2878 60.3612 37.4559V42.0508H60.3626ZM64.1419 50.51C64.1419 50.6768 64.0231 50.8209 63.8591 50.8521L62.0707 51.197C62.0482 51.2013 62.0269 51.2027 62.0058 51.2027C61.9251 51.2027 61.8459 51.1745 61.7837 51.1222C61.7031 51.0558 61.6578 50.9582 61.6578 50.855V46.5088C61.6578 46.3264 61.8006 46.1751 61.983 46.1624L63.7702 46.0408C63.8663 46.0337 63.961 46.0691 64.0318 46.1327C64.1024 46.1991 64.142 46.2911 64.142 46.3887V50.51H64.1419ZM64.1419 42.2658C64.1419 42.362 64.1023 42.4538 64.0331 42.5203C63.9682 42.581 63.8833 42.615 63.7942 42.615C63.787 42.615 63.7815 42.615 63.7743 42.6136L61.9873 42.5117C61.8034 42.5018 61.6592 42.3492 61.6592 42.1639V37.8743C61.6592 37.7726 61.703 37.6749 61.7809 37.6085C61.8572 37.5421 61.959 37.5138 62.0594 37.5279L63.8478 37.798C64.0189 37.8234 64.1434 37.9705 64.1434 38.143V42.2657L64.1419 42.2658Z" fill="url(#paint0_linear_109_1264)"/>
</g>
<defs>
<linearGradient id="paint0_linear_109_1264" x1="-6.15971e-07" y1="14.8521" x2="68.0623" y2="19.4933" gradientUnits="userSpaceOnUse">
<stop stop-color="#283891"/>
<stop offset="1" stop-color="#001482"/>
</linearGradient>
<clipPath id="clip0_109_1264">
<rect width="66" height="71" fill="white"/>
</clipPath>
</defs>
</svg>
