<svg width="40" height="73" viewBox="0 0 40 73" fill="none" xmlns="http://www.w3.org/2000/svg">
<g clip-path="url(#clip0_109_1257)">
<path fill-rule="evenodd" clip-rule="evenodd" d="M12.3298 30.4612C12.3298 28.9411 12.7805 27.4552 13.6251 26.1913C14.4696 24.9274 15.67 23.9424 17.0744 23.3607C18.4788 22.7791 20.0241 22.627 21.515 22.9236C23.0058 23.2203 24.3752 23.9524 25.45 25.0273C26.5247 26.1023 27.2566 27.4718 27.553 28.9627C27.8494 30.4536 27.697 31.9989 27.1151 33.4032C26.5332 34.8075 25.5479 36.0077 24.2839 36.852C23.0199 37.6963 21.5339 38.1468 20.0138 38.1466C17.9764 38.144 16.0233 37.3334 14.5828 35.8926C13.1423 34.4519 12.3322 32.4986 12.33 30.4612H12.3298ZM30.9948 30.4612C30.9946 28.2893 30.3504 26.1662 29.1437 24.3605C27.9369 22.5547 26.2217 21.1473 24.2151 20.3163C22.2085 19.4853 20.0005 19.268 17.8704 19.6918C15.7403 20.1157 13.7836 21.1616 12.248 22.6975C10.7123 24.2333 9.66653 26.1901 9.24292 28.3202C8.81931 30.4504 9.03688 32.6584 9.86811 34.6649C10.6994 36.6714 12.1069 38.3864 13.9128 39.593C15.7187 40.7996 17.8419 41.4435 20.0138 41.4435C22.9254 41.4403 25.7168 40.2822 27.7755 38.2233C29.8343 36.1644 30.9921 33.3728 30.995 30.4612H30.9948ZM0.254175 72.6369L4.81272 59.6466H10.2483C10.3054 59.6466 10.3627 59.6434 10.4196 59.638L10.6846 59.6128L10.8681 59.805C13.3373 62.3839 16.1176 64.8406 19.1136 66.7918C19.3812 66.9659 19.6936 67.0586 20.0128 67.0586C20.332 67.0586 20.6444 66.9659 20.912 66.7918C23.9075 64.8411 26.6872 62.385 29.1544 59.8052L29.3379 59.6136L29.6017 59.6381C29.6605 59.6435 29.7194 59.6469 29.7784 59.6469H35.2126L39.7713 72.6369H0.254175ZM0.131837 32.4871C1.32022 43.8563 10.55 56.6733 19.6936 63.1968L20.0138 63.4248L20.3328 63.1972C29.477 56.6729 38.7071 43.8568 39.8957 32.4875C40.246 29.1368 39.9202 25.7807 38.6759 22.6347C37.6534 20.0486 36.0853 17.7792 34.1235 15.8167C30.3648 12.0565 25.3139 10.069 20.0206 10H20.0063C14.7102 10.0689 9.66512 12.0553 5.90397 15.8161C3.94216 17.7775 2.37428 20.0459 1.35203 22.6314C0.107736 25.7784 -0.218171 29.1354 0.132204 32.4871H0.131837Z" fill="url(#paint0_linear_109_1257)"/>
</g>
<defs>
<linearGradient id="paint0_linear_109_1257" x1="-3.71057e-07" y1="15.011" x2="41.1259" y2="16.6468" gradientUnits="userSpaceOnUse">
<stop stop-color="#283891"/>
<stop offset="1" stop-color="#001482"/>
</linearGradient>
<clipPath id="clip0_109_1257">
<rect width="40" height="73" fill="white"/>
</clipPath>
</defs>
</svg>
