<svg width="1324" height="1496" viewBox="0 0 1324 1496" fill="none" xmlns="http://www.w3.org/2000/svg">
<g opacity="0.15">
<path d="M472.246 1402.38C665.524 1132.31 679.219 949.638 654.198 831.5C626.27 699.654 537.601 589.123 572.27 559.064C594.469 539.814 651.36 567.357 765.998 633.553C1113.63 834.277 1163.73 911.959 1249.76 889.957C1370.29 859.157 1355.22 685.379 1516.38 596.269C1634.74 530.825 1773.51 552.311 1876.48 583.168" stroke="#A0A3BD" stroke-miterlimit="10"/>
<path d="M459.059 1394.06C646.44 1130.81 667.386 948.84 648.538 835.463C627.474 708.761 542.613 604.385 578.084 576.652C600.888 558.82 656.754 585.922 767.476 649.842C1103.94 844.048 1155.89 921.984 1240.76 899.286C1361.04 866.666 1337.47 684.597 1497.46 589.563C1500.95 587.491 1504.41 585.494 1507.92 583.582C1623.96 520.522 1764.09 541.264 1868.2 570.915" stroke="#A0A3BD" stroke-miterlimit="10"/>
<path d="M445.892 1385.73C627.362 1129.32 655.61 948.313 642.898 839.424C628.726 718.052 547.661 619.646 583.919 594.239C607.337 577.823 662.184 604.486 768.972 666.135C1094.22 853.828 1148.15 932.296 1231.79 908.6C1351.94 874.564 1319.74 683.71 1478.58 582.838C1482.06 580.624 1485.53 578.416 1489.1 576.379C1605.67 509.871 1751.71 529.303 1859.93 558.648" stroke="#A0A3BD" stroke-miterlimit="10"/>
<path d="M432.711 1377.41C608.288 1127.79 643.852 948.127 637.249 843.39C629.944 727.576 552.722 634.914 589.741 611.838C613.792 596.842 667.575 623.067 770.456 682.431C1084.53 863.632 1140.37 942.443 1222.82 917.919C1342.76 882.243 1301.99 682.755 1459.68 576.119C1463.18 573.751 1466.68 571.396 1470.25 569.189C1586.34 497.505 1739.29 517.356 1851.63 546.391" stroke="#A0A3BD" stroke-miterlimit="10"/>
<path d="M419.532 1369.09C589.218 1126.29 632.081 948.321 631.597 847.358C631.07 737.36 557.808 650.187 595.57 629.432C620.259 615.859 672.985 641.642 771.948 698.726C1074.83 873.42 1132.58 952.576 1213.84 927.233C1333.6 889.885 1284.21 681.728 1440.77 569.384C1444.29 566.87 1447.81 564.353 1451.43 561.967C1567.56 486.031 1726.9 505.385 1843.37 534.117" stroke="#A0A3BD" stroke-miterlimit="10"/>
<path d="M406.352 1360.77C570.15 1124.79 620.258 948.946 625.959 851.322C632.023 747.438 562.9 665.471 601.404 647.019C626.748 634.877 678.397 660.211 773.444 715.02C1065.14 883.202 1124.8 962.685 1204.87 936.546C1324.43 897.512 1266.42 680.637 1421.89 562.67C1425.42 559.989 1428.95 557.301 1432.61 554.772C1548.8 474.613 1714.53 493.425 1835.11 521.86" stroke="#A0A3BD" stroke-miterlimit="10"/>
<path d="M393.177 1352.44C551.072 1123.28 608.309 950.039 620.304 855.292C632.642 757.813 568.027 680.758 607.224 664.619C633.233 653.907 683.806 678.801 774.922 731.318C1055.44 892.991 1117.01 972.787 1195.89 945.865C1315.27 905.121 1248.58 679.502 1402.99 555.954C1406.55 553.107 1410.08 550.259 1413.77 547.582C1530.01 463.229 1702.12 481.484 1826.82 509.606" stroke="#A0A3BD" stroke-miterlimit="10"/>
<path d="M379.998 1344.12C531.996 1121.78 578.454 947.696 614.656 859.257C614.783 767.936 573.159 696.067 613.051 682.21C639.733 672.944 689.208 697.361 776.424 747.632C1045.75 902.797 1109.22 982.889 1186.92 955.201C1306.11 912.727 1230.73 678.332 1384.1 549.254C1387.66 546.254 1391.22 543.234 1394.95 540.396C1511.29 451.875 1689.76 469.522 1818.56 497.355" stroke="#A0A3BD" stroke-miterlimit="10"/>
<path d="M366.818 1335.8C512.923 1120.27 564.058 947.412 609.007 863.223C613.143 777.691 578.301 711.394 618.878 699.806C646.241 691.99 694.607 715.928 777.901 763.912C1036.02 912.579 1101.42 992.94 1177.94 964.499C1296.92 920.275 1212.82 677.081 1365.19 542.517C1368.77 539.355 1372.34 536.172 1376.11 533.176C1492.55 440.514 1677.34 457.558 1810.27 485.075" stroke="#A0A3BD" stroke-miterlimit="10"/>
<path d="M353.639 1327.48C493.848 1118.77 549.664 947.136 603.355 867.191C611.497 787.443 583.453 726.735 624.704 717.397C652.751 711.045 700.017 734.502 779.387 780.206C1026.35 922.367 1093.62 1002.99 1168.96 973.81C1287.74 927.814 1194.89 675.812 1346.29 535.789C1349.88 532.47 1353.48 529.125 1357.28 525.97C1473.82 429.184 1664.94 445.594 1802 472.809" stroke="#A0A3BD" stroke-miterlimit="10"/>
<path d="M340.462 1319.15C474.778 1117.26 535.271 946.856 597.709 871.16C609.859 797.202 588.612 742.1 630.528 734.995C659.266 730.12 705.429 753.081 780.871 796.492C1016.64 932.134 1085.81 1013.02 1159.98 983.121C1278.54 935.329 1176.93 674.504 1327.39 529.062C1330.99 525.577 1334.61 522.079 1338.44 518.764C1455.12 417.869 1652.54 433.631 1793.71 460.539" stroke="#A0A3BD" stroke-miterlimit="10"/>
<path d="M327.28 1310.83C455.696 1115.76 520.885 946.571 592.072 875.139C608.231 806.969 593.78 757.49 636.36 752.607C665.789 749.226 710.841 771.67 782.369 812.818C1006.95 941.95 1078.01 1023.06 1151.02 992.459C1269.37 942.851 1158.96 673.21 1308.51 522.368C1312.13 518.719 1315.75 515.071 1319.63 511.602C1436.46 406.613 1640.16 421.708 1785.46 448.313" stroke="#A0A3BD" stroke-miterlimit="10"/>
<path d="M314.101 1302.51C436.624 1114.25 506.477 946.299 586.412 879.092C606.58 816.711 598.924 772.879 642.181 770.182C672.297 768.305 716.243 790.23 783.853 829.099C997.261 951.712 1070.2 1033.06 1142.03 1001.76C1260.15 950.312 1140.92 671.842 1289.6 515.633C1293.23 511.822 1296.89 508.01 1300.8 504.368C1417.8 395.313 1627.76 409.706 1777.18 436.022" stroke="#A0A3BD" stroke-miterlimit="10"/>
<path d="M300.934 1294.18C417.548 1112.75 492.083 946.023 580.769 883.064C604.941 826.474 604.072 788.294 648.01 787.776C678.813 787.415 721.651 808.801 785.343 845.391C987.552 961.507 1062.38 1043.06 1133.06 1011.08C1250.94 957.762 1122.85 670.459 1270.7 508.914C1274.34 504.937 1278.02 500.967 1281.95 497.173C1399.13 384.042 1615.36 397.767 1768.92 423.753" stroke="#A0A3BD" stroke-miterlimit="10"/>
<path d="M287.747 1285.86C398.472 1111.24 477.691 945.742 575.119 887.026C603.299 836.225 609.214 803.718 653.842 805.379C685.323 806.542 727.063 827.379 786.819 861.705C977.842 971.312 1054.54 1053.05 1124.07 1020.41C1241.7 965.206 1104.76 669.116 1251.79 502.207C1255.44 498.068 1259.15 493.944 1263.11 489.989C1380.48 372.795 1602.95 385.827 1760.61 411.517" stroke="#A0A3BD" stroke-miterlimit="10"/>
<path d="M274.567 1277.54C379.396 1109.73 463.295 945.463 569.467 890.993C601.66 845.979 614.344 819.158 659.664 822.963C691.818 825.663 732.465 845.949 788.323 877.984C968.154 981.08 1046.72 1063 1115.11 1029.71C1232.47 972.594 1086.65 667.695 1232.92 495.488C1236.58 491.185 1240.31 486.906 1244.32 482.781C1361.87 361.528 1590.57 373.851 1752.33 399.224" stroke="#A0A3BD" stroke-miterlimit="10"/>
<path d="M261.387 1269.22C360.325 1108.23 448.906 945.2 563.818 894.96C599.99 855.737 619.466 834.613 665.492 840.558C698.308 844.802 737.873 864.521 789.801 894.268C958.447 990.854 1038.86 1072.94 1106.12 1039.01C1223.21 979.957 1068.49 666.277 1214 488.736C1217.67 484.265 1221.43 479.835 1225.45 475.558C1343.26 350.285 1578.19 361.889 1744.06 386.977" stroke="#A0A3BD" stroke-miterlimit="10"/>
<path d="M248.2 1260.88C341.241 1106.71 434.495 944.895 558.161 898.916C598.364 865.478 624.567 850.055 671.302 858.14C704.772 863.912 743.269 883.08 791.283 910.565C948.741 1000.64 1031.01 1082.88 1097.14 1048.33C1213.94 987.326 1050.33 664.879 1195.12 482.037C1198.79 477.401 1202.58 472.817 1206.63 468.38C1324.67 339.048 1565.78 349.944 1735.8 374.732" stroke="#A0A3BD" stroke-miterlimit="10"/>
<path d="M235.026 1252.56C322.181 1105.23 444.866 990.933 552.524 902.894C592.809 869.949 629.682 865.533 677.142 875.747C711.264 883.073 748.69 901.667 792.787 926.873C939.058 1010.45 1023.16 1092.83 1088.18 1057.66C1204.65 994.659 1032.13 663.457 1176.22 475.307C1179.89 470.511 1183.72 465.766 1187.79 461.171C1306.08 327.806 1553.37 337.987 1727.51 362.449" stroke="#A0A3BD" stroke-miterlimit="10"/>
<path d="M221.849 1244.24C303.104 1103.7 408.907 956.092 546.872 906.853C596.642 889.092 634.768 880.994 682.966 893.335C717.733 902.22 754.09 920.233 794.27 943.164C929.36 1020.22 1015.29 1102.75 1079.2 1066.97C1195.34 1001.96 1013.9 662.028 1157.31 468.582C1161 463.616 1164.86 458.731 1168.96 453.966C1287.78 316.782 1540.99 326.021 1719.25 350.18" stroke="#A0A3BD" stroke-miterlimit="10"/>
<path d="M208.671 1235.92C284.022 1102.2 392.515 950.132 541.226 910.822C593.977 896.881 639.851 896.471 688.793 910.931C724.197 921.378 759.502 938.812 795.757 959.462C919.663 1030.02 1007.56 1112.91 1070.22 1076.29C1185.74 1008.79 995.364 660.43 1138.42 461.865C1142.1 456.729 1146 451.697 1150.13 446.77C1269.09 305.446 1528.59 314.062 1710.96 337.921" stroke="#A0A3BD" stroke-miterlimit="10"/>
<path d="M195.493 1227.6C264.95 1100.71 376.926 943.804 535.578 914.797C774.753 871.08 957.39 1147.79 1061.25 1085.61C1179.65 1014.72 966.816 640.436 1131.3 439.572C1250.41 294.116 1516.22 302.097 1702.69 325.665" stroke="#A0A3BD" stroke-miterlimit="10"/>
</g>
</svg>
