<svg width="66" height="79" viewBox="0 0 66 79" fill="none" xmlns="http://www.w3.org/2000/svg">
<path d="M17.6565 24.7876C17.8165 25.7412 18.2251 26.6357 18.8409 27.3811C20.0102 35.5063 27.311 42.3723 33.1725 42.1474C40.6681 41.7876 45.9151 33.7523 47.0994 27.3811C47.7409 26.5421 48.1678 25.5592 48.3434 24.5178C48.6582 23.0187 49.0032 20.8599 48.1337 19.6906L47.6839 19.2709C48.5234 16.2726 50.3673 10.8458 45.78 6.00363C43.2379 3.62529 40.1484 1.91062 36.7853 1.01155C27.5657 -2.07664 21.0745 2.24089 18.0613 9.42167C17.8514 9.93137 16.4573 13.1545 18.1513 19.2709C17.9805 19.3865 17.8286 19.5281 17.7015 19.6906C16.7721 20.8599 17.4017 23.3335 17.6565 24.7876Z" fill="url(#paint0_linear_337_10166)"/>
<path d="M65.2833 69.4764C65.0285 63.8847 64.7138 55.01 59.8267 47.7542C58.5713 46.3018 56.9515 45.2101 55.1343 44.5911C55.1343 44.5911 47.9535 42.4024 44.6404 40.0938L43.1413 41.1281L43.3064 50.9323L34.2366 75.1281C34.1401 75.3852 33.9683 75.6071 33.7436 75.7649C33.519 75.9227 33.2518 76.009 32.9772 76.0126C32.7002 76.012 32.4301 75.9271 32.2024 75.7691C31.9748 75.6111 31.8007 75.3875 31.7032 75.1281L22.7085 50.9323C22.7085 50.9323 22.8732 41.1581 22.8732 41.1281C22.8732 41.0982 21.3741 40.0938 21.3741 40.0938C18.076 42.4474 10.8803 44.5911 10.8803 44.5911C9.05761 45.2077 7.43275 46.2997 6.17319 47.7542C1.28607 55.01 0.971412 63.8847 0.716562 69.4764C0.536668 73.3441 1.34597 74.7833 2.36537 75.1881C15.0029 80.2701 51.0416 80.2701 63.6942 75.1881C64.6536 74.8133 65.4632 73.3741 65.2833 69.4764Z" fill="url(#paint1_linear_337_10166)"/>
<path d="M33.2926 45.2797H32.8878C31.5387 45.2658 30.201 45.0278 28.9299 44.5752L32.528 50.0769L29.3047 53.1801L32.6177 73.3283C32.632 73.413 32.6762 73.4898 32.7421 73.5448C32.8081 73.5997 32.8916 73.6293 32.9775 73.6281C33.0616 73.6288 33.1434 73.5987 33.207 73.5435C33.2705 73.4882 33.3116 73.4117 33.3226 73.3283L36.6506 53.1801L33.4123 50.0769L36.9654 44.6651C35.769 45.0117 34.5366 45.2179 33.2926 45.2797Z" fill="url(#paint2_linear_337_10166)"/>
<defs>
<linearGradient id="paint0_linear_337_10166" x1="38.8344" y1="0.958018" x2="19.5724" y2="40.238" gradientUnits="userSpaceOnUse">
<stop stop-color="#FC502B"/>
<stop offset="1" stop-color="#FF9431"/>
</linearGradient>
<linearGradient id="paint1_linear_337_10166" x1="44.9697" y1="40.978" x2="35.4924" y2="83.8555" gradientUnits="userSpaceOnUse">
<stop stop-color="#FC502B"/>
<stop offset="1" stop-color="#FF9431"/>
</linearGradient>
<linearGradient id="paint2_linear_337_10166" x1="34.4361" y1="45.2355" x2="18.296" y2="57.3956" gradientUnits="userSpaceOnUse">
<stop stop-color="#FC502B"/>
<stop offset="1" stop-color="#FF9431"/>
</linearGradient>
</defs>
</svg>
