<svg width="76" height="75" viewBox="0 0 76 75" fill="none" xmlns="http://www.w3.org/2000/svg">
<path d="M31.0638 47.8635L24.2915 54.4454L27.9967 57.893C22.2432 63.6466 16.6577 69.2434 11.1056 74.7843L0.594604 64.1615L17.3067 47.4493L20.497 51.0201L27.4146 44.2032C21.4484 36.4907 19.8255 27.8268 22.8142 18.0771C25.7693 21.0323 28.579 23.7523 31.2655 26.5843C31.6627 27.2615 31.8569 28.0386 31.8251 28.823C32.2616 33.0612 34.3108 36.9693 37.5488 39.7385C40.7868 42.5077 44.9653 43.9258 49.2199 43.6994C51.678 43.5993 54.0813 42.9429 56.249 41.7795C58.4167 40.6162 60.2924 38.9763 61.7346 36.9832L51.6603 26.9089L45.1343 33.6251L19.3888 7.87966L18.93 8.13713V13.5101H14.3517V0.0105062H27.9183V4.48798H22.5679L44.9553 26.8753L51.6043 20.1591L63.8613 32.5617C66.4359 27.3007 64.5777 19.5435 59.8987 15.0548C54.0108 9.40201 46.8918 8.99902 38.1831 13.7451L30.9408 6.50283C39.8174 -1.62378 55.5668 -2.83269 66.3575 6.89461C71.538 11.5042 74.7454 17.9311 75.3143 24.8421C75.8833 31.7532 73.7702 38.618 69.4133 44.0129C67.1594 46.7998 64.3753 49.1122 61.2219 50.8161C58.0685 52.5201 54.6085 53.5818 51.0421 53.9399C47.4758 54.298 43.8737 53.9453 40.4445 52.9023C37.0153 51.8593 33.8268 50.1467 31.0638 47.8635Z" fill="url(#paint0_linear_337_10175)"/>
<defs>
<linearGradient id="paint0_linear_337_10175" x1="73.2601" y1="-3.9055" x2="19.1809" y2="64.8849" gradientUnits="userSpaceOnUse">
<stop stop-color="#FC502B"/>
<stop offset="1" stop-color="#FF9431"/>
</linearGradient>
</defs>
</svg>
