<svg width="68" height="79" viewBox="0 0 68 79" fill="none" xmlns="http://www.w3.org/2000/svg">
<path d="M47.2303 72.9494C45.9169 73.0369 45.2602 73.1099 44.6035 73.1099H2.79506C0.343474 73.1099 0.110218 72.8618 0.110218 70.3518C0.110218 66.4848 0.110218 62.6176 0.110218 58.7651C0.0613238 56.4335 0.488089 54.1163 1.36464 51.9552C2.24119 49.7941 3.54914 47.8344 5.20842 46.1956C6.8677 44.5568 8.84337 43.2732 11.0152 42.4236C13.1871 41.574 15.5094 41.1759 17.8403 41.2538C18.8641 41.2512 19.8706 41.5179 20.7588 42.0273C23.702 43.9385 27.1363 44.9556 30.6456 44.9556C34.1549 44.9556 37.5889 43.9385 40.5321 42.0273C42.8815 40.568 45.2456 41.1954 47.5367 41.6332C51.067 42.3209 54.284 44.1218 56.7159 46.7717C59.1478 49.4216 60.6667 52.781 61.0496 56.3573C60.568 55.9195 60.203 55.5256 59.7944 55.2046C59.2841 54.7726 58.6868 54.4555 58.043 54.275C57.3992 54.0946 56.7241 54.0551 56.0636 54.1589C55.4031 54.2628 54.7726 54.5077 54.2153 54.877C53.6579 55.2463 53.1868 55.7313 52.8337 56.299C52.6007 56.5981 52.4185 56.9332 52.2939 57.2912C52.0351 58.4947 51.3441 59.5618 50.3519 60.2905C49.3597 61.0192 48.1348 61.3591 46.9089 61.246C45.9128 61.2153 44.9364 61.5254 44.1404 62.1251C43.3444 62.7247 42.7765 63.578 42.5311 64.5439C42.2337 65.4875 42.2324 66.4994 42.5272 67.4438C42.822 68.3882 43.3989 69.2197 44.1803 69.8265C45.0121 70.6729 45.9169 71.6214 47.2303 72.9494Z" fill="url(#paint0_linear_337_10213)"/>
<path d="M30.7989 0C32.3603 0.189706 34.009 0.262705 35.6142 0.583746C42.5604 2.04302 46.3548 6.08526 46.8656 13.2211C47.535 19.5358 46.0652 25.8924 42.6919 31.2723C41.2369 33.4859 39.369 35.3983 37.1904 36.9051C34.8926 38.4233 32.1435 39.1067 29.4024 38.8411C26.6612 38.5755 24.0941 37.3769 22.1306 35.4459C17.636 31.4474 15.6514 26.1794 14.8342 20.4299C14.5229 18.2994 14.3862 16.1473 14.4255 13.9946C14.5569 6.55227 19.0664 1.50314 26.4503 0.452461C27.8074 0.248162 29.2667 0.16052 30.7989 0Z" fill="url(#paint1_linear_337_10213)"/>
<path d="M49.0835 77.2981C49.4118 75.7652 49.6602 74.2162 49.8277 72.6575C49.8589 71.8412 49.612 71.0387 49.1273 70.3811C48.2225 69.2575 47.0407 68.3528 46.0484 67.2875C44.8226 65.9595 45.3041 64.6608 47.099 64.3689H47.2886C49.0413 64.608 50.8194 64.1708 52.2614 63.1462C53.7034 62.1217 54.7011 60.5866 55.052 58.8528C55.1885 58.4867 55.4152 58.161 55.7111 57.9059C56.007 57.6508 56.3625 57.4746 56.7447 57.3936C57.1216 57.4828 57.4713 57.6622 57.7636 57.9164C58.0559 58.1706 58.2823 58.4919 58.423 58.8528C58.7788 60.5485 59.7526 62.0509 61.1553 63.0678C62.5579 64.0848 64.289 64.5435 66.0112 64.3543C66.3939 64.3827 66.7638 64.5038 67.0893 64.7072C67.4147 64.9106 67.6859 65.1901 67.8791 65.5216C67.9217 65.9039 67.8711 66.2909 67.7313 66.6492C67.5915 67.0076 67.3666 67.3268 67.0764 67.5793C65.5684 68.4365 64.4339 69.8249 63.8943 71.4735C63.3546 73.122 63.4486 74.9124 64.1579 76.4954C64.2542 76.8642 64.2593 77.2508 64.1729 77.6219C64.0864 77.9931 63.9113 78.3376 63.662 78.6259C63.2815 78.7773 62.8707 78.8377 62.4628 78.8023C62.0548 78.7668 61.661 78.6366 61.3124 78.4218C58.1895 76.0431 55.2709 76.1891 52.1189 78.4218C50.5283 79.5746 49.1418 78.9033 49.0835 77.2981Z" fill="url(#paint2_linear_337_10213)"/>
<defs>
<linearGradient id="paint0_linear_337_10213" x1="35.9722" y1="41.5212" x2="31.9145" y2="74.3354" gradientUnits="userSpaceOnUse">
<stop stop-color="#FC502B"/>
<stop offset="1" stop-color="#FF9431"/>
</linearGradient>
<linearGradient id="paint1_linear_337_10213" x1="33.6071" y1="0.492371" x2="23.058" y2="38.0327" gradientUnits="userSpaceOnUse">
<stop stop-color="#FC502B"/>
<stop offset="1" stop-color="#FF9431"/>
</linearGradient>
<linearGradient id="paint2_linear_337_10213" x1="58.625" y1="57.6671" x2="53.7883" y2="79.0738" gradientUnits="userSpaceOnUse">
<stop stop-color="#FC502B"/>
<stop offset="1" stop-color="#FF9431"/>
</linearGradient>
</defs>
</svg>
