<svg width="62" height="79" viewBox="0 0 62 79" fill="none" xmlns="http://www.w3.org/2000/svg">
<path d="M9.47694 79C9.06591 74.7605 10.1111 71.1552 13.2819 68.325C16.4527 65.4947 20.2578 65.3538 24.2624 65.6122V61.5371C15.0481 60.8585 6.46387 56.6064 0.340576 49.6877L6.48252 43.6984C-4.79145 29.6059 0.821966 11.3092 12.5657 4.45088C12.366 5.28468 12.2252 5.95408 12.049 6.62348C10.9334 10.9452 9.7941 15.2551 8.67845 19.5416C8.26452 20.8522 8.23842 22.2544 8.60304 23.5796C8.96766 24.9047 9.70747 26.0962 10.7336 27.0106C11.7264 27.9573 12.9691 28.6006 14.3152 28.8649C15.6613 29.1291 17.0548 29.0032 18.3317 28.502C19.8937 27.9853 21.4321 27.4098 23.0292 26.9283C24.7549 26.4778 26.3369 25.5941 27.6255 24.3611C28.9141 23.128 29.8666 21.5863 30.3926 19.8821C30.5145 19.3925 30.7837 18.9522 31.1638 18.6204C31.5439 18.2886 32.0167 18.0813 32.5183 18.0266C37.2745 17.1106 40.0695 14.1747 41.1147 9.48895C41.4201 8.11493 41.784 6.7409 42.1598 5.21421L43.616 6.23591L49.6407 0C58.7773 8.53768 62.7937 18.79 61.3844 30.8743C60.4928 38.9878 56.682 46.5006 50.6622 52.0129C44.787 57.5875 37.1566 60.9461 29.0774 61.5136V65.5417H31.4262C39.6468 65.5417 44.3443 70.6737 43.7923 78.9765L9.47694 79ZM7.12819 49.6407C18.0499 59.5641 37.8028 60.2101 49.7344 46.3877C61.1376 33.1995 57.8024 15.0907 49.7344 7.04623L47.1156 9.5359L50.7093 15.2434C49.2413 16.312 47.9848 17.275 46.693 18.1793C44.1446 19.9409 42.8175 22.2661 43.3812 25.4134C43.9449 28.5607 46.0471 30.2283 49.03 31.0034C50.2044 31.3088 51.3786 31.6963 52.6821 32.1073L50.6035 38.0849L41.3143 36.3938C40.2033 36.1608 39.054 36.1813 37.952 36.4537C36.85 36.7262 35.8237 37.2436 34.9493 37.9675C34.2509 38.4864 33.5876 39.0514 32.9644 39.6585C32.5987 40.047 32.1364 40.3312 31.6246 40.4818C31.1127 40.6325 30.5698 40.6442 30.052 40.5158C27.1934 40.0195 24.2511 40.5063 21.7046 41.8969C19.1582 43.2874 17.1579 45.4996 16.03 48.1727C15.7482 48.8186 15.478 49.4763 15.1022 50.3571L9.77053 46.9397L7.12819 49.6407Z" fill="url(#paint0_linear_337_10217)"/>
<path d="M38.0027 2.72464C37.3215 5.30826 36.8283 7.80966 35.9945 10.2289C35.7378 11.0822 35.2316 11.8391 34.5409 12.4021C33.8502 12.9651 33.0066 13.3085 32.119 13.3879C28.5959 13.7168 26.5996 15.3609 25.8011 18.8135C25.5503 19.679 25.073 20.4618 24.4185 21.0812C23.7641 21.7005 22.9563 22.1339 22.0784 22.3366C20.3755 22.9003 18.6843 23.511 16.9815 24.0865C14.3274 24.932 12.4837 23.2762 13.1648 20.5634C14.6758 14.5506 16.2417 8.54951 17.8623 2.56021C17.942 2.28709 18.0798 2.03443 18.2663 1.81957C18.4528 1.6047 18.6834 1.4327 18.9426 1.31538C25.247 -0.629212 32.0528 -0.125999 38.0027 2.72464Z" fill="url(#paint1_linear_337_10217)"/>
<path d="M19.5178 51.8142C21.2324 46.4826 24.5677 44.2748 29.9229 45.1908C32.1307 45.5666 33.8921 45.3317 35.3718 43.5584C36.2477 42.3774 37.4941 41.524 38.9119 41.1344C40.3296 40.7449 41.837 40.8417 43.1933 41.4093C44.6227 41.7935 46.0791 42.0683 47.5502 42.2313C44.2267 49.9822 28.3139 55.4078 19.5178 51.8142Z" fill="url(#paint2_linear_337_10217)"/>
<path d="M52.3296 19.6953L53.1872 27.4109C51.5666 26.9177 50.2865 26.6476 49.0886 26.1544C48.7531 26.0246 48.4565 25.8105 48.2279 25.5326C47.9994 25.2548 47.8464 24.9226 47.7838 24.5683C47.7212 24.214 47.7512 23.8496 47.8707 23.5102C47.9902 23.1709 48.1954 22.8681 48.4662 22.6312C49.5584 21.633 50.8147 20.8227 52.3296 19.6953Z" fill="url(#paint3_linear_337_10217)"/>
<defs>
<linearGradient id="paint0_linear_337_10217" x1="44.5" y1="-1.30381e-07" x2="7" y2="76" gradientUnits="userSpaceOnUse">
<stop stop-color="#FC502B"/>
<stop offset="1" stop-color="#FF9431"/>
</linearGradient>
<linearGradient id="paint1_linear_337_10217" x1="31.0122" y1="0.150391" x2="21.5997" y2="25.563" gradientUnits="userSpaceOnUse">
<stop stop-color="#FC502B"/>
<stop offset="1" stop-color="#FF9431"/>
</linearGradient>
<linearGradient id="paint2_linear_337_10217" x1="39.7056" y1="40.8994" x2="37.3956" y2="54.9321" gradientUnits="userSpaceOnUse">
<stop stop-color="#FC502B"/>
<stop offset="1" stop-color="#FF9431"/>
</linearGradient>
<linearGradient id="paint3_linear_337_10217" x1="51.6662" y1="19.6953" x2="47.793" y2="26.8194" gradientUnits="userSpaceOnUse">
<stop stop-color="#FC502B"/>
<stop offset="1" stop-color="#FF9431"/>
</linearGradient>
</defs>
</svg>
