<svg width="72" height="66" viewBox="0 0 72 66" fill="none" xmlns="http://www.w3.org/2000/svg">
<path fill-rule="evenodd" clip-rule="evenodd" d="M14.7574 50.8514V60.149H5.46322V28.6093C5.46322 28.4155 5.54025 28.2296 5.67735 28.0925C5.81431 27.9555 6.00023 27.8785 6.19405 27.8785H14.0266C14.2204 27.8785 14.4063 27.9555 14.5433 28.0925C14.6804 28.2296 14.7574 28.4155 14.7574 28.6093V44.9812C14.3081 45.0284 13.8595 45.0675 13.4114 45.099C12.0331 45.1849 10.9256 46.2771 10.8218 47.6588C10.7174 49.0469 11.6583 50.297 13.0208 50.5813C13.0433 50.586 13.066 50.5904 13.0887 50.5943C13.6394 50.6924 14.1959 50.7782 14.7574 50.8514ZM22.7244 43.2764V19.2631C22.7244 18.8594 23.0516 18.5323 23.4553 18.5323H31.2877C31.6914 18.5323 32.0185 18.8594 32.0185 19.2631V39.0034C31.628 39.2411 31.2402 39.4675 30.8561 39.6818C28.0769 41.2319 25.3754 42.4129 22.7244 43.2764ZM39.9816 32.9512V9.50775C39.9816 9.10419 40.3087 8.77693 40.7124 8.77693H48.5489C48.9525 8.77693 49.2797 9.10419 49.2797 9.50775V17.2466L47.3018 17.9627C46.2139 18.3564 45.44 19.3286 45.2998 20.477C45.1596 21.6254 45.6771 22.755 46.6382 23.399L47.8581 24.2162C45.7703 27.1644 42.9907 30.2189 39.9816 32.9512ZM57.2427 14.3638V0.730826C57.2427 0.327264 57.5699 0 57.9735 0H65.806C66.2096 0 66.5369 0.327264 66.5369 0.730826V60.149H57.2427V32.3119C57.5451 31.9119 57.8392 31.509 58.1246 31.1029L59.1012 31.7579C60.0913 32.4219 61.3764 32.4526 62.397 31.8365C63.4177 31.2204 63.9894 30.0691 63.8631 28.8836L62.5429 16.4893C62.4431 15.5515 61.9175 14.7115 61.1178 14.2116C60.318 13.7118 59.3327 13.6072 58.4459 13.9282L57.2427 14.3638ZM49.2797 40.4587V60.149H39.9816V46.3417C40.7966 45.9434 41.6074 45.5199 42.4125 45.0709L42.4132 45.0705C44.8832 43.692 47.1769 42.1426 49.2797 40.4587ZM32.0185 49.4117V60.149H22.7244V51.0714C25.7758 50.8573 28.8973 50.3082 32.0185 49.4117ZM0.92041 65.2692V63.2185C0.92041 63.0247 0.997439 62.8387 1.1344 62.7016C1.2715 62.5645 1.45742 62.4877 1.65124 62.4877H70.3489C70.5427 62.4877 70.7286 62.5645 70.8657 62.7016C71.0027 62.8387 71.0797 63.0247 71.0797 63.2185V65.2692C71.0797 65.463 71.0027 65.6489 70.8657 65.7859C70.7286 65.923 70.5427 66 70.3489 66H1.65124C1.45742 66 1.2715 65.923 1.1344 65.7859C0.997439 65.6489 0.92041 65.463 0.92041 65.2692ZM57.472 27.8494C53.8186 33.7501 48.2917 39.1115 41.2735 43.0284C32.0511 48.1711 22.0613 49.816 13.4984 48.2919C13.2848 48.2474 13.1375 48.0515 13.1538 47.834C13.1701 47.6165 13.3452 47.4448 13.563 47.4326C19.5133 47.0172 25.5587 45.3144 31.9954 41.7242C38.9327 37.854 47.0129 30.2071 51.0912 23.5671L47.9398 21.456C47.7109 21.3027 47.5879 21.0338 47.6212 20.7603C47.6545 20.4868 47.8388 20.2554 48.0978 20.1616L59.2419 16.1273C59.4531 16.0508 59.6877 16.0757 59.8782 16.1947C60.0685 16.3138 60.1937 16.5137 60.2174 16.7371L61.5376 29.1313C61.5677 29.4135 61.4316 29.6876 61.1885 29.8344C60.9455 29.9811 60.6395 29.9738 60.4038 29.8156L57.472 27.8494Z" fill="url(#paint0_linear_277_9454)"/>
<defs>
<linearGradient id="paint0_linear_277_9454" x1="66.9204" y1="-0.999999" x2="31.9204" y2="57.5" gradientUnits="userSpaceOnUse">
<stop stop-color="#FC502B"/>
<stop offset="1" stop-color="#FF9431"/>
</linearGradient>
</defs>
</svg>
