<svg width="80" height="68" viewBox="0 0 80 68" fill="none" xmlns="http://www.w3.org/2000/svg">
<path d="M79.8992 67.9995H42.9091V9.7002H79.8992V67.9995ZM51.3444 22.7878V27.2733H72.3562V22.7878H51.3444ZM72.4035 31.8421H51.3921V36.3037H72.4035V31.8421ZM51.3206 45.3937H72.3323V40.9082H51.3206V45.3937ZM72.4035 49.9386H51.3921V54.4003H72.4035V49.9386Z" fill="url(#paint0_linear_337_10222)"/>
<path d="M38.0427 64.0732C31.0416 57.0108 21.5606 52.9597 11.6177 52.7822V0.00342308C15.3731 -0.0504929 19.1105 0.532853 22.6708 1.72862C28.1474 3.46513 33.1369 6.46943 37.2337 10.4973C37.7358 10.9825 38.0445 11.6337 38.1022 12.3296C38.1498 29.2879 38.1498 46.2503 38.1022 63.2166C38.1379 63.3831 38.0903 63.5735 38.0427 64.0732Z" fill="url(#paint1_linear_337_10222)"/>
<path d="M6.81095 57.5421C17.9711 56.6616 27.3465 59.9216 35.2704 67.9526H0.100708V9.65332H6.81095V57.5421Z" fill="url(#paint2_linear_337_10222)"/>
<defs>
<linearGradient id="paint0_linear_337_10222" x1="61.4041" y1="9.7002" x2="61.4041" y2="67.9995" gradientUnits="userSpaceOnUse">
<stop stop-color="#FC502B"/>
<stop offset="1" stop-color="#FF9431"/>
</linearGradient>
<linearGradient id="paint1_linear_337_10222" x1="24.8778" y1="0" x2="24.8778" y2="64.0732" gradientUnits="userSpaceOnUse">
<stop stop-color="#FC502B"/>
<stop offset="1" stop-color="#FF9431"/>
</linearGradient>
<linearGradient id="paint2_linear_337_10222" x1="17.6856" y1="9.65332" x2="17.6856" y2="67.9526" gradientUnits="userSpaceOnUse">
<stop stop-color="#FC502B"/>
<stop offset="1" stop-color="#FF9431"/>
</linearGradient>
</defs>
</svg>
