<svg width="70" height="68" viewBox="0 0 70 68" fill="none" xmlns="http://www.w3.org/2000/svg">
<path d="M36.9602 30.9944C36.3553 30.7888 35.7637 30.5462 35.1885 30.2681C26.583 25.6829 17.9849 21.0757 9.39415 16.4465C8.9749 16.1362 8.60405 15.7653 8.2937 15.3461C8.61674 14.9607 8.98638 14.6169 9.39415 14.3227L35.0564 0.545084C35.6536 0.188354 36.3362 0 37.0318 0C37.7274 0 38.4099 0.188354 39.007 0.545084C47.5134 5.13394 56.031 9.67877 64.5374 14.2676C64.984 14.58 65.3872 14.95 65.7368 15.3681C65.362 15.7815 64.9411 16.1507 64.4823 16.4685C56.0162 21.0244 47.5428 25.5618 39.0621 30.081C38.3787 30.4237 37.677 30.7286 36.9602 30.9944Z" fill="url(#paint0_linear_337_10226)"/>
<path d="M33.1747 44.2663C33.1039 47.4824 32.8319 50.691 32.3604 53.8731C31.5495 57.4451 29.691 60.6937 27.0228 63.2031C24.3546 65.7125 20.9981 67.3684 17.3832 67.9588C16.9143 68.0283 16.4367 68.0097 15.9747 67.9038C11.6977 67.1107 7.83062 64.8518 5.03893 61.5158C2.24723 58.1799 0.705397 53.9753 0.678523 49.6254C0.601492 45.7188 0.678523 41.8123 0.678523 37.9167C0.632777 37.4642 0.747674 37.01 1.0032 36.6337C1.25873 36.2575 1.63861 35.9832 2.07611 35.8588C6.64295 33.9331 11.1767 31.9413 15.7546 30.0485C16.4645 29.7846 17.2455 29.7846 17.9554 30.0485C22.5883 31.9633 27.1552 33.9771 31.7661 35.9139C32.1797 36.0407 32.5346 36.311 32.7666 36.6762C32.9986 37.0414 33.0926 37.4774 33.0316 37.9057C33.0316 40.0185 33.0316 42.1424 33.0316 44.2663H33.1747ZM16.767 60.1567C18.2609 60.1683 19.7423 59.8839 21.1257 59.3199C22.5091 58.7559 23.7671 57.9235 24.827 56.8707C25.887 55.8179 26.7279 54.5656 27.3013 53.186C27.8747 51.8065 28.1691 50.327 28.1676 48.8331C28.1705 45.8385 26.986 42.9649 24.8737 40.8423C22.7613 38.7197 19.8936 37.5212 16.8991 37.5095C15.4048 37.4877 13.9211 37.7624 12.5337 38.3179C11.1463 38.8733 9.88273 39.6983 8.81633 40.7453C7.74993 41.7923 6.90184 43.0403 6.32099 44.4172C5.74014 45.7942 5.43804 47.2726 5.43238 48.7671C5.41633 50.2636 5.69797 51.7485 6.26094 53.1352C6.82391 54.5219 7.65698 55.7829 8.71169 56.8448C9.76639 57.9066 11.0217 58.7482 12.4046 59.3206C13.7875 59.8929 15.2704 60.1846 16.767 60.1787V60.1567Z" fill="url(#paint1_linear_337_10226)"/>
<path d="M35.2437 43.4841C35.2437 41.4703 35.2437 39.4565 35.2437 37.4427C35.3029 36.7581 35.1471 36.0722 34.798 35.4804C34.4488 34.8886 33.9237 34.4205 33.2959 34.1414C28.1458 31.8854 22.9627 29.7396 17.7907 27.5387C17.4937 27.4372 17.1878 27.3635 16.8772 27.3186V23.1699C17.4274 23.445 17.8897 23.6541 18.3409 23.8962C23.513 26.6583 28.707 29.3984 33.8461 32.2156C34.8157 32.8009 35.9267 33.1103 37.0593 33.1103C38.1919 33.1103 39.303 32.8009 40.2727 32.2156C45.4227 29.4094 50.6058 26.7134 55.7779 23.9072C56.196 23.6871 56.6253 23.4891 57.2636 23.1809C57.2636 26.4272 57.2636 29.4865 57.2636 32.5457C57.2117 32.7426 57.1193 32.9265 56.9924 33.0857C56.8654 33.2448 56.7067 33.3758 56.5262 33.4701C50.914 36.7347 45.2907 39.9811 39.6565 43.209C39.0014 43.6171 38.255 43.8559 37.4847 43.9039C36.7144 43.952 35.9444 43.8077 35.2437 43.4841Z" fill="url(#paint2_linear_337_10226)"/>
<path d="M65.858 18.7354C65.858 22.0367 65.858 25.283 65.858 28.5403C65.858 29.6408 66.0562 30.4111 67.1456 30.7412C68.8953 31.3575 69.4345 32.59 69.3465 34.4277C69.1814 37.0137 69.3464 39.6218 69.2804 42.2189C69.2804 42.8241 69.0383 43.6934 68.6202 43.9245C68.202 44.1556 67.4537 43.6714 66.8595 43.5064L66.7384 43.4183C64.7356 41.9217 64.7576 41.9548 62.6998 43.4183C62.1716 43.7815 61.2471 44.1556 60.851 43.9356C60.4548 43.7155 60.2017 42.7471 60.1907 42.0978C60.1247 39.2587 60.1907 36.4195 60.1907 33.5804C60.1907 32.4139 60.4658 31.5886 61.5773 31.2144C63.371 30.5982 63.7782 29.3657 63.6792 27.5499C63.5031 25.4921 63.6792 23.4232 63.6792 21.3544C63.6792 19.2856 63.6571 19.2966 65.858 18.7354Z" fill="url(#paint3_linear_337_10226)"/>
<path d="M35.3093 50.4387V46.0369C36.4337 46.2462 37.5883 46.2305 38.7066 45.9906C39.8248 45.7507 40.8844 45.2915 41.824 44.6394C46.4239 41.9323 51.0567 39.2912 55.6786 36.6281L57.2633 35.7588C57.2633 37.1453 57.3293 38.3339 57.2633 39.5003C57.2077 39.7172 57.1089 39.9206 56.9727 40.0984C56.8366 40.2762 56.6658 40.4246 56.4708 40.5347C51.1557 43.638 45.8185 46.6972 40.4924 49.7785C39.7188 50.2354 38.8602 50.5296 37.969 50.6431C37.0777 50.7566 36.1727 50.6871 35.3093 50.4387Z" fill="url(#paint4_linear_337_10226)"/>
<path d="M14.896 50.1656C16.9209 48.1738 18.7145 46.4351 20.4752 44.6634C21.2786 43.8491 22.1589 43.3649 23.0943 44.2673C24.0297 45.1696 23.5125 46.094 22.7202 46.8863C20.6844 48.9332 18.6705 51.002 16.6237 53.0378C15.5232 54.1382 14.7749 54.1382 13.6744 53.1038C12.574 52.0694 11.7047 51.123 10.7143 50.1436C9.96599 49.3953 9.72383 48.537 10.5162 47.7337C10.673 47.563 10.8667 47.4303 11.0824 47.3455C11.298 47.2606 11.5301 47.2259 11.7611 47.2439C11.9922 47.2619 12.2162 47.3322 12.4161 47.4495C12.6161 47.5667 12.7867 47.7279 12.9152 47.9207C13.5975 48.669 14.2468 49.4283 14.896 50.1656Z" fill="url(#paint5_linear_337_10226)"/>
<defs>
<linearGradient id="paint0_linear_337_10226" x1="37.0153" y1="0" x2="37.0153" y2="30.9944" gradientUnits="userSpaceOnUse">
<stop stop-color="#FC502B"/>
<stop offset="1" stop-color="#FF9431"/>
</linearGradient>
<linearGradient id="paint1_linear_337_10226" x1="16.9095" y1="29.8506" x2="16.9095" y2="68" gradientUnits="userSpaceOnUse">
<stop stop-color="#FC502B"/>
<stop offset="1" stop-color="#FF9431"/>
</linearGradient>
<linearGradient id="paint2_linear_337_10226" x1="37.0704" y1="23.1699" x2="37.0704" y2="43.913" gradientUnits="userSpaceOnUse">
<stop stop-color="#FC502B"/>
<stop offset="1" stop-color="#FF9431"/>
</linearGradient>
<linearGradient id="paint3_linear_337_10226" x1="64.7585" y1="18.7354" x2="64.7585" y2="44.0012" gradientUnits="userSpaceOnUse">
<stop stop-color="#FC502B"/>
<stop offset="1" stop-color="#FF9431"/>
</linearGradient>
<linearGradient id="paint4_linear_337_10226" x1="46.301" y1="35.7588" x2="46.301" y2="50.696" gradientUnits="userSpaceOnUse">
<stop stop-color="#FC502B"/>
<stop offset="1" stop-color="#FF9431"/>
</linearGradient>
<linearGradient id="paint5_linear_337_10226" x1="16.8109" y1="43.7812" x2="16.8109" y2="53.8716" gradientUnits="userSpaceOnUse">
<stop stop-color="#FC502B"/>
<stop offset="1" stop-color="#FF9431"/>
</linearGradient>
</defs>
</svg>
